<svg width="180" height="26" viewBox="0 0 180 26" fill="none" xmlns="http://www.w3.org/2000/svg">
<path d="M11.1891 23.635C9.17707 23.635 7.31226 23.1957 5.67646 22.3169C4.04066 21.4381 2.73202 20.2013 1.79961 18.639C0.867205 17.0767 0.392822 15.3029 0.392822 13.35C0.392822 11.3971 0.867204 9.62329 1.81597 8.061C2.74838 6.49872 4.05702 5.26191 5.70918 4.38312C7.34498 3.50433 9.19343 3.06494 11.2218 3.06494C12.8576 3.06494 14.3789 3.35787 15.7366 3.92745C16.9635 4.43194 18.0268 5.16426 18.9101 6.09187C19.0573 6.25461 19.1391 6.46617 19.1391 6.694C19.1391 6.92184 19.041 7.11712 18.8774 7.26359L17.1598 8.87469C17.0126 9.02116 16.7999 9.10253 16.5873 9.10253C16.3746 9.10253 16.1619 9.02116 16.0147 8.87469C14.7552 7.65416 13.1848 7.01948 11.4018 7.01948C10.1422 7.01948 9.01349 7.29613 8.01565 7.83317C7.03417 8.37021 6.24899 9.1188 5.70918 10.079C5.153 11.0391 4.87492 12.1457 4.87492 13.3663C4.87492 14.5868 5.153 15.6934 5.70918 16.6536C6.26535 17.6137 7.03417 18.3623 8.01565 18.8994C8.99714 19.4364 10.1422 19.7131 11.4018 19.7131C13.2175 19.7131 14.7388 19.0947 16.0147 17.8416C16.1783 17.6951 16.3746 17.5975 16.6036 17.5975C16.8163 17.5975 17.0289 17.6788 17.1761 17.8253L18.9101 19.4527C19.0737 19.5991 19.1555 19.8107 19.1718 20.0223C19.1718 20.2501 19.09 20.4617 18.9428 20.6081C18.0595 21.5357 16.9798 22.268 15.753 22.7725C14.3462 23.3421 12.8249 23.635 11.1891 23.635Z" fill="#971225"/>
<path d="M11.2216 3.47189C12.8083 3.47189 14.2642 3.74855 15.5728 4.30186C16.7506 4.79007 17.7648 5.48985 18.6154 6.36863C18.779 6.53137 18.779 6.80803 18.599 6.97076L16.8815 8.58187C16.7997 8.66324 16.7015 8.69579 16.587 8.69579C16.4889 8.69579 16.3744 8.66324 16.2926 8.58187C14.9349 7.27997 13.2991 6.61274 11.3852 6.61274C10.0602 6.61274 8.86604 6.90567 7.80277 7.47525C6.75585 8.04484 5.93795 8.84225 5.34907 9.8675C4.76018 10.8928 4.46573 12.0482 4.46573 13.3501C4.46573 14.652 4.76018 15.8074 5.34907 16.8327C5.93795 17.8579 6.75585 18.6554 7.81912 19.2249C8.86604 19.7945 10.0602 20.0875 11.4015 20.0875C13.3154 20.0875 14.9512 19.4202 16.3089 18.1021C16.3907 18.0207 16.5052 17.9881 16.6034 17.9881C16.7015 17.9881 16.816 18.0207 16.8978 18.1021L18.6318 19.7294C18.7953 19.8922 18.8117 20.1526 18.6481 20.3316C17.7975 21.2266 16.7833 21.9101 15.5892 22.3983C14.2642 22.9517 12.8083 23.2283 11.2216 23.2283C9.25863 23.2283 7.49196 22.8052 5.90524 21.959C4.31851 21.1127 3.09166 19.941 2.19197 18.4275C1.29228 16.9303 0.850616 15.2379 0.850616 13.3501C0.850616 11.4623 1.30864 9.76986 2.20833 8.27267C3.10802 6.77548 4.35123 5.60376 5.93795 4.74125C7.49196 3.89501 9.25863 3.47189 11.2216 3.47189ZM11.2216 2.6582C9.12777 2.6582 7.21388 3.11387 5.529 4.0252C3.81141 4.95281 2.4537 6.23844 1.47222 7.84955C0.49074 9.47693 0 11.3159 0 13.3501C0 15.3681 0.49074 17.2233 1.45586 18.8344C2.42098 20.4618 3.7787 21.7474 5.47993 22.6587C7.18116 23.5701 9.09505 24.0257 11.1725 24.0257C12.8574 24.0257 14.4441 23.7328 15.8509 23.1469C17.1432 22.6099 18.2555 21.845 19.1879 20.8849C19.4169 20.6408 19.5315 20.3316 19.5315 20.0061C19.5151 19.6806 19.3842 19.3714 19.1389 19.1436L17.4049 17.5162C17.1759 17.3046 16.8651 17.1744 16.5543 17.1744C16.2271 17.1744 15.9163 17.3046 15.6873 17.5325C14.4768 18.7042 13.07 19.29 11.3525 19.29C10.1747 19.29 9.09505 19.0297 8.16264 18.5252C7.23024 18.0207 6.52684 17.3372 6.00339 16.4259C5.47993 15.5308 5.2182 14.4893 5.2182 13.3501C5.2182 12.1947 5.47993 11.1694 6.00339 10.2743C6.52684 9.37929 7.23024 8.69579 8.16264 8.17503C9.09505 7.67054 10.1583 7.41016 11.3525 7.41016C13.07 7.41016 14.4768 7.97974 15.6873 9.15146C15.9163 9.37929 16.2271 9.49321 16.5543 9.49321C16.8651 9.49321 17.1759 9.37929 17.4049 9.16773L19.1225 7.55662C19.3679 7.32879 19.4987 7.01959 19.5151 6.69411C19.5315 6.36863 19.4006 6.04316 19.1716 5.79905C18.2392 4.83889 17.1268 4.07403 15.8509 3.53699C14.4768 2.95113 12.9065 2.6582 11.2216 2.6582Z" fill="#FFFDFD"/>
<path d="M28.9211 23.3581C28.4631 23.3581 28.0869 22.9838 28.0869 22.5281V16.3441L20.9057 4.59439C20.7421 4.33401 20.7421 4.02481 20.8893 3.76443C21.0366 3.50405 21.3146 3.34131 21.6091 3.34131H24.4717C24.7662 3.34131 25.0279 3.48777 25.1915 3.74815L30.3933 12.3082H30.4261L35.677 3.74815C35.8242 3.50405 36.1023 3.35758 36.3804 3.35758H38.9486C39.243 3.35758 39.5211 3.52032 39.6683 3.7807C39.8155 4.04108 39.8155 4.35029 39.652 4.61067L32.5035 16.2953V22.5444C32.5035 23.0001 32.1273 23.3744 31.6693 23.3744H28.9211V23.3581Z" fill="#971225"/>
<path d="M38.9486 3.74793C39.2757 3.74793 39.4884 4.10596 39.3084 4.38261L32.16 16.0672C32.1273 16.1323 32.0946 16.2137 32.0946 16.2788V22.5116C32.0946 22.7395 31.8983 22.9348 31.6693 22.9348H28.9048C28.6757 22.9348 28.4794 22.7395 28.4794 22.5116V16.3276C28.4794 16.2462 28.4631 16.1811 28.414 16.116L21.2328 4.36634C21.0693 4.08968 21.2656 3.73166 21.5927 3.73166H24.4554C24.6026 3.73166 24.7335 3.81303 24.8152 3.92695L30.0171 12.487C30.0989 12.6172 30.2461 12.6823 30.377 12.6823C30.5242 12.6823 30.6551 12.6172 30.7368 12.487L35.9878 3.92695C36.0696 3.79675 36.2004 3.73166 36.3476 3.73166H38.9486V3.74793ZM38.9486 2.93424H36.3804C35.9551 2.93424 35.5461 3.16208 35.3171 3.5201L30.3933 11.5268L25.5514 3.5201C25.3223 3.1458 24.9134 2.91797 24.4881 2.91797H21.6254C21.1838 2.91797 20.7585 3.16208 20.5458 3.55265C20.3332 3.94322 20.3332 4.41516 20.5622 4.78946L27.6779 16.4415V22.5116C27.6779 23.1951 28.2341 23.7485 28.9211 23.7485H31.6856C32.3726 23.7485 32.9288 23.1951 32.9288 22.5116V16.3927L40.0282 4.78946C40.2572 4.41516 40.2736 3.92695 40.0446 3.55265C39.8155 3.17835 39.3902 2.93424 38.9486 2.93424Z" fill="#FFFDFD"/>
<path d="M48.5341 23.6349C46.9965 23.6349 45.5079 23.4233 44.0684 22.9839C42.7761 22.5934 41.7128 22.0889 40.8786 21.4542C40.5678 21.2264 40.4696 20.8032 40.6168 20.4615L41.5165 18.4598C41.6474 18.1669 41.9418 17.9716 42.269 17.9716C42.4326 17.9716 42.5962 18.0204 42.7434 18.1181C43.4141 18.5737 44.232 18.9806 45.1644 19.2898C46.2767 19.6641 47.3891 19.8594 48.5178 19.8594C49.8755 19.8594 50.8897 19.6478 51.5276 19.241C52.1165 18.8667 52.411 18.3784 52.411 17.7763C52.411 17.3369 52.2637 16.9952 51.9529 16.7185C51.5931 16.4093 51.135 16.1489 50.5789 15.9699C49.99 15.7746 49.1557 15.5468 48.1088 15.2864C46.6202 14.9447 45.3934 14.5866 44.461 14.2286C43.4795 13.8543 42.6452 13.2685 41.9418 12.4873C41.2221 11.6736 40.8622 10.567 40.8622 9.21629C40.8622 8.07712 41.173 7.03559 41.811 6.09171C42.4326 5.1641 43.3813 4.41551 44.6246 3.87847C45.8514 3.34144 47.3563 3.08105 49.1066 3.08105C50.3171 3.08105 51.5276 3.22752 52.7054 3.53672C53.7523 3.7971 54.6684 4.1714 55.4699 4.64334C55.8298 4.8549 55.977 5.27802 55.8134 5.66859L54.9955 7.67027C54.8647 7.97947 54.5702 8.19103 54.2267 8.19103C54.0958 8.19103 53.965 8.15849 53.8341 8.09339C53.1471 7.71909 52.411 7.44244 51.6585 7.23088C50.7752 6.98677 49.9082 6.85658 49.0739 6.85658C47.7489 6.85658 46.7511 7.06814 46.1295 7.49126C45.557 7.88183 45.2625 8.40259 45.2625 9.05355C45.2625 9.47667 45.4097 9.81842 45.7205 10.0951C46.0804 10.4043 46.5384 10.6484 47.0946 10.8437C47.6835 11.039 48.5178 11.2668 49.5647 11.5272C51.0205 11.8526 52.231 12.2107 53.1634 12.5687C54.1449 12.943 54.9955 13.5288 55.6989 14.31C56.4187 15.1074 56.7949 16.1978 56.7949 17.5485C56.7949 18.6876 56.4841 19.7292 55.8461 20.6568C55.2245 21.5844 54.2758 22.3167 53.0162 22.8537C51.8057 23.3582 50.2844 23.6349 48.5341 23.6349Z" fill="#971225"/>
<path d="M49.123 3.47141C50.3008 3.47141 51.4786 3.61787 52.6236 3.9108C53.6378 4.17118 54.5212 4.5292 55.2736 4.98487C55.4536 5.09879 55.5354 5.31035 55.4536 5.50563L54.6357 7.50731C54.5702 7.67005 54.4067 7.76769 54.2431 7.76769C54.1776 7.76769 54.1122 7.75142 54.0468 7.71887C53.327 7.3283 52.5746 7.03537 51.7894 6.82381C50.857 6.56343 49.9736 6.43324 49.1067 6.43324C47.6835 6.43324 46.6202 6.67735 45.9332 7.14929C45.2462 7.62123 44.8863 8.25591 44.8863 9.03705C44.8863 9.59036 45.0826 10.0298 45.4752 10.3878C45.8678 10.7295 46.3749 11.0062 46.9801 11.2177C47.5854 11.413 48.4196 11.6409 49.4829 11.9012C50.9224 12.2267 52.1002 12.5685 53.0326 12.9265C53.965 13.2845 54.7502 13.8216 55.4045 14.5539C56.0588 15.2862 56.386 16.2789 56.386 17.5157C56.386 18.5735 56.0915 19.5337 55.519 20.3962C54.9301 21.2587 54.0468 21.9422 52.869 22.4467C51.6912 22.9512 50.2354 23.2115 48.5505 23.2115C47.0456 23.2115 45.6061 23 44.2156 22.5769C42.9724 22.2026 41.9419 21.7144 41.1567 21.1122C40.9931 20.9983 40.944 20.7867 41.0258 20.6077L41.9255 18.6061C41.9909 18.4433 42.1545 18.3619 42.3181 18.3619C42.3999 18.3619 42.4817 18.3782 42.5635 18.4433C43.2832 18.9315 44.1175 19.3384 45.0826 19.6639C46.244 20.0544 47.4054 20.2497 48.5668 20.2497C50.0064 20.2497 51.086 20.0219 51.8057 19.5662C52.5091 19.1105 52.869 18.5084 52.869 17.7598C52.869 17.2065 52.6727 16.7508 52.2801 16.4091C51.8875 16.0511 51.3804 15.7744 50.7752 15.5791C50.1699 15.3838 49.3357 15.156 48.2724 14.8956C46.8002 14.5539 45.5897 14.1959 44.6736 13.8541C43.7576 13.5124 42.9724 12.959 42.3181 12.2267C41.6638 11.4781 41.3366 10.4854 41.3366 9.21606C41.3366 8.15827 41.6311 7.19811 42.2036 6.31932C42.7925 5.45681 43.6594 4.75704 44.8372 4.25255C45.9823 3.73179 47.4218 3.47141 49.123 3.47141ZM49.123 2.65771C47.3236 2.65771 45.7533 2.93437 44.4773 3.48768C43.1687 4.05726 42.1545 4.85468 41.4838 5.84738C40.8132 6.85636 40.4696 7.97925 40.4696 9.19979C40.4696 10.6644 40.8622 11.8524 41.6638 12.7475C42.3999 13.5774 43.2996 14.2121 44.3465 14.6027C45.2952 14.9607 46.5385 15.3187 48.0434 15.6768C49.0739 15.9209 49.8918 16.1487 50.4644 16.344C50.9715 16.5067 51.3804 16.7346 51.6912 17.0112C51.9202 17.2065 52.0184 17.4506 52.0184 17.7598C52.0184 18.069 51.9366 18.4921 51.3314 18.8827C50.7588 19.257 49.8264 19.436 48.5505 19.436C47.4872 19.436 46.3912 19.257 45.328 18.8827C44.4446 18.5735 43.6594 18.1992 43.0215 17.7598C42.8088 17.6134 42.5635 17.5483 42.3181 17.5483C41.8274 17.5483 41.3857 17.8412 41.1894 18.2806L40.2897 20.2823C40.0607 20.803 40.2079 21.4214 40.6659 21.7632C41.5165 22.4141 42.6453 22.9512 43.9702 23.358C45.4425 23.7974 46.9801 24.0252 48.5505 24.0252C50.3499 24.0252 51.9202 23.7486 53.1962 23.1953C54.5212 22.6257 55.5354 21.8283 56.1897 20.8518C56.8604 19.8591 57.2039 18.7362 57.2039 17.5157C57.2039 16.0673 56.7949 14.8956 56.0097 14.0168C55.2736 13.1869 54.3576 12.5685 53.327 12.1616C52.3783 11.7873 51.1351 11.4293 49.6628 11.1038C48.6323 10.8597 47.8144 10.6319 47.2419 10.4366C46.7348 10.2739 46.3258 10.046 46.015 9.76937C45.8023 9.57409 45.7042 9.34625 45.7042 9.03705C45.7042 8.51629 45.9169 8.14199 46.3912 7.81651C46.9474 7.44222 47.8471 7.24693 49.1067 7.24693C49.8918 7.24693 50.7261 7.36085 51.5767 7.60496C52.2965 7.80024 52.9999 8.0769 53.6705 8.43492C53.8505 8.53256 54.0468 8.58138 54.2431 8.58138C54.7502 8.58138 55.2082 8.28846 55.3881 7.81651L56.206 5.81484C56.435 5.24525 56.2224 4.61057 55.6989 4.2851C54.8647 3.79688 53.8996 3.40631 52.8199 3.12966C51.6094 2.82045 50.3662 2.65771 49.123 2.65771Z" fill="#FFFDFD"/>
<path d="M65.4976 23.3586C65.0396 23.3586 64.6633 22.9843 64.6633 22.5286V7.18242C64.6633 7.18242 64.6633 7.16614 64.647 7.16614H59.0525C58.5945 7.16614 58.2183 6.79185 58.2183 6.33618V4.17176C58.2183 3.71609 58.5945 3.3418 59.0525 3.3418H74.6744C75.1325 3.3418 75.5087 3.71609 75.5087 4.17176V6.35245C75.5087 6.80812 75.1325 7.18242 74.6744 7.18242H69.08C69.0636 7.18242 69.0636 7.18242 69.0636 7.19869V22.5449C69.0636 23.0006 68.6874 23.3749 68.2294 23.3749H65.4976V23.3586Z" fill="#971225"/>
<path d="M74.6907 3.74826C74.9197 3.74826 75.116 3.94355 75.116 4.17138V6.35207C75.116 6.57991 74.9197 6.77519 74.6907 6.77519H69.0962C68.8672 6.77519 68.6709 6.97048 68.6709 7.19831V22.5445C68.6709 22.7724 68.4746 22.9676 68.2456 22.9676H65.4811C65.2521 22.9676 65.0558 22.7724 65.0558 22.5445V7.18204C65.0558 6.9542 64.8595 6.75892 64.6305 6.75892H59.0361C58.807 6.75892 58.6107 6.56363 58.6107 6.3358V4.17138C58.6107 3.94355 58.807 3.74826 59.0361 3.74826H74.6907ZM74.6907 2.93457H59.0688C58.3817 2.93457 57.8256 3.48788 57.8256 4.17138V6.35207C57.8256 7.03557 58.3817 7.58888 59.0688 7.58888H64.2543V22.5445C64.2543 23.228 64.8104 23.7813 65.4975 23.7813H68.262C68.949 23.7813 69.5052 23.228 69.5052 22.5445V7.57261H74.6907C75.3777 7.57261 75.9339 7.0193 75.9339 6.3358V4.17138C75.9339 3.48788 75.3777 2.93457 74.6907 2.93457Z" fill="#FFFDFD"/>
<path d="M78.7637 23.3586C78.3057 23.3586 77.9294 22.9843 77.9294 22.5286V4.17176C77.9294 3.71609 78.3057 3.3418 78.7637 3.3418H81.5118C81.9699 3.3418 82.3461 3.71609 82.3461 4.17176V22.5286C82.3461 22.9843 81.9699 23.3586 81.5118 23.3586H78.7637Z" fill="#971225"/>
<path d="M81.5117 3.74826C81.7408 3.74826 81.9371 3.94355 81.9371 4.17138V22.5283C81.9371 22.7561 81.7408 22.9514 81.5117 22.9514H78.7472C78.5182 22.9514 78.3219 22.7561 78.3219 22.5283V4.17138C78.3219 3.94355 78.5182 3.74826 78.7472 3.74826H81.5117ZM81.5117 2.93457H78.7472C78.0602 2.93457 77.504 3.48788 77.504 4.17138V22.5283C77.504 23.2118 78.0602 23.7651 78.7472 23.7651H81.5117C82.1988 23.7651 82.755 23.2118 82.755 22.5283V4.17138C82.755 3.48788 82.1988 2.93457 81.5117 2.93457Z" fill="#FFFDFD"/>
<path d="M176.45 25.9242H94.0714C92.1085 25.9242 90.5217 24.3456 90.5217 22.3928V3.53142C90.5217 1.57856 92.1085 0 94.0714 0H176.45C178.413 0 180 1.57856 180 3.53142V22.3928C180 24.3456 178.397 25.9242 176.45 25.9242Z" fill="white"/>
<path d="M118.936 0.911356C120.621 1.88778 121.504 3.41752 121.324 5.01235C121.177 6.3468 120.277 7.38832 118.985 7.74635C118.919 7.76262 118.854 7.74634 118.821 7.68125C117.742 6.07014 117.284 4.42649 117.529 3.02695V3.01067C117.693 2.13189 118.134 1.38329 118.772 0.927628C118.838 0.878807 118.887 0.878809 118.936 0.911356Z" fill="#41A54B"/>
<path d="M120.326 6.67216C119.279 2.94546 115.108 4.23109 113.93 4.58912C114.617 7.07901 117.234 9.22715 120.326 6.67216Z" fill="#41A54B"/>
<path d="M111.738 5.17522V20.7493C111.738 21.0422 111.493 21.2863 111.199 21.2863H108.81C108.647 21.2863 108.499 21.2212 108.385 21.091L101.155 12.3357C100.828 11.9451 100.19 12.173 100.19 12.6775V20.7493C100.19 21.0422 99.9442 21.2863 99.6498 21.2863H96.918C96.6235 21.2863 96.3782 21.0422 96.3782 20.7493V5.17522C96.3782 4.88229 96.6235 4.63818 96.918 4.63818H99.3226C99.4862 4.63818 99.6334 4.70328 99.7479 4.83347L106.945 13.5725C107.273 13.9631 107.911 13.7353 107.911 13.2308V5.17522C107.911 4.88229 108.156 4.63818 108.45 4.63818H111.199C111.493 4.63818 111.738 4.88229 111.738 5.17522Z" fill="#333333"/>
<path d="M148.037 21.2863C147.857 21.2863 147.693 21.2049 147.595 21.0585L144.536 16.6483H144.34H141.51C141.215 16.6483 140.97 16.8924 140.97 17.1853V20.7493C140.97 21.0422 140.724 21.2863 140.43 21.2863H137.633C137.338 21.2863 137.093 21.0422 137.093 20.7493V5.17522C137.093 4.88229 137.338 4.63818 137.633 4.63818H144.34C145.828 4.63818 147.104 4.88229 148.2 5.37051C149.296 5.85872 150.13 6.55849 150.719 7.46983C151.308 8.38116 151.603 9.43897 151.603 10.6758C151.603 11.9126 151.308 12.9867 150.703 13.8817C150.212 14.614 149.541 15.2162 148.707 15.6718C148.429 15.8346 148.331 16.1926 148.511 16.453L151.308 20.4401C151.553 20.7981 151.308 21.2863 150.866 21.2863H148.037ZM146.777 8.52763C146.172 8.02314 145.288 7.77903 144.127 7.77903H141.51C141.215 7.77903 140.97 8.02314 140.97 8.31607V13.0355C140.97 13.3284 141.215 13.5725 141.51 13.5725H144.127C145.288 13.5725 146.172 13.3121 146.777 12.8076C147.382 12.3032 147.693 11.5871 147.693 10.6595C147.677 9.74817 147.382 9.03212 146.777 8.52763Z" fill="#333333"/>
<path d="M170.496 20.7489L170.48 13.2467C170.48 12.6934 169.76 12.4981 169.466 12.97L165.703 19.268C165.605 19.4307 165.425 19.5284 165.245 19.5284H164.117C163.92 19.5284 163.757 19.4307 163.659 19.268L159.913 13.1491C159.635 12.6771 158.915 12.8887 158.915 13.4257V20.7326C158.915 21.0256 158.67 21.2697 158.375 21.2697H155.823C155.529 21.2697 155.283 21.0256 155.283 20.7326V5.15862C155.283 4.86569 155.529 4.62158 155.823 4.62158H158.179C158.375 4.62158 158.539 4.71923 158.637 4.88196L164.28 14.1906C164.493 14.5323 165 14.5323 165.213 14.1906L170.758 4.88196C170.856 4.71923 171.036 4.62158 171.233 4.62158H173.555C173.85 4.62158 174.095 4.86569 174.095 5.15862L174.144 20.7326C174.144 21.0256 173.899 21.2697 173.604 21.2697H171.053C170.742 21.286 170.496 21.0581 170.496 20.7489Z" fill="#333333"/>
<path d="M124.416 7.61609C125.61 7.61609 126.64 7.8602 127.54 8.34842C128.407 8.82036 129.078 9.43876 129.569 10.2525C130.059 11.0499 130.288 11.9449 130.288 12.9865C130.288 14.028 130.059 14.923 129.569 15.7205C129.078 16.5342 128.407 17.1526 127.54 17.6245C126.624 18.1127 125.61 18.3568 124.416 18.3568C123.222 18.3568 122.191 18.1127 121.259 17.6245C120.392 17.1526 119.721 16.5342 119.247 15.7367C118.756 14.9393 118.527 14.0443 118.527 13.0027C118.527 11.9612 118.756 11.0661 119.247 10.2687C119.737 9.47131 120.392 8.85291 121.259 8.38096C122.175 7.84393 123.205 7.61609 124.416 7.61609ZM124.416 4.36133C122.682 4.36133 121.111 4.73563 119.721 5.48422C118.331 6.23282 117.235 7.25807 116.449 8.55998C115.664 9.86188 115.272 11.3428 115.272 12.9702C115.272 14.5976 115.664 16.0785 116.449 17.3804C117.235 18.6823 118.331 19.7238 119.721 20.4562C121.111 21.2047 122.682 21.579 124.416 21.579C126.15 21.579 127.72 21.2047 129.11 20.4562C130.501 19.7076 131.597 18.6823 132.382 17.3804C133.184 16.0785 133.576 14.5976 133.576 12.9702C133.576 11.3428 133.184 9.86188 132.382 8.55998C131.581 7.25807 130.485 6.21654 129.11 5.48422C127.72 4.71935 126.15 4.36133 124.416 4.36133Z" fill="#971225"/>
</svg>
