<svg width="19" height="18" viewBox="0 0 19 18" fill="none" xmlns="http://www.w3.org/2000/svg">
<path d="M6.485 17.4165V0.538696C3.02 1.75067 0.5 5.07236 0.5 8.9776C0.5 12.8828 3.02 16.2045 6.485 17.4165Z" fill="#00953B"/>
<path d="M12.515 0.538653C11.57 0.179551 10.535 0 9.49999 0C8.46499 0 7.42999 0.179551 6.48499 0.538653V17.4613C7.42999 17.7756 8.41999 18 9.49999 18C10.535 18 11.57 17.8204 12.515 17.4613V0.538653Z" fill="white"/>
<path d="M12.515 0.538696V17.4614C15.98 16.2045 18.5 12.8828 18.5 8.9776C18.5 5.07236 15.98 1.75067 12.515 0.538696Z" fill="#FF3131"/>
</svg>
