<svg width="40" height="40" viewBox="0 0 40 40" fill="none" xmlns="http://www.w3.org/2000/svg">
<path d="M23.9674 18.1772C23.4239 18.1772 23.4239 19.0604 23.9674 19.0604C24.5109 19.0604 24.5109 18.1772 23.9674 18.1772Z" fill="#971225"/>
<path d="M18.5326 22.8335C17.7173 22.8335 17.7173 24.011 18.5326 24.011C19.2572 24.011 19.2572 22.8335 18.5326 22.8335Z" fill="#971225"/>
<path d="M15.1812 22.3887C14.4565 22.3887 14.4565 23.4756 15.1812 23.4756C15.8152 23.4756 15.8152 22.3887 15.1812 22.3887Z" fill="#971225"/>
<path d="M20.7064 14.5401C21.7028 14.5401 21.7028 13.0908 20.7064 13.0908C19.8007 13.0908 19.8007 14.5401 20.7064 14.5401Z" fill="#971225"/>
<path d="M26.0506 20.3088C26.8658 20.3088 26.8658 19.0859 26.0506 19.0859C25.2354 19.0859 25.2354 20.3088 26.0506 20.3088Z" fill="#971225"/>
<path d="M24.1486 15.7957C25.3262 15.7957 25.3262 13.8936 24.1486 13.8936C22.8805 13.8936 22.8805 15.7957 24.1486 15.7957Z" fill="#971225"/>
<path d="M18.9854 25.2158C17.8079 25.2158 17.8079 27.118 18.9854 27.118C20.2536 27.118 20.2536 25.2158 18.9854 25.2158Z" fill="#971225"/>
<path d="M14.0943 16.0698C13.2791 16.0698 13.2791 17.2474 14.0943 17.2474C14.819 17.2474 14.819 16.0698 14.0943 16.0698Z" fill="#971225"/>
<path d="M19.9819 1.23193C9.64311 1.23193 1.23193 9.64311 1.23193 19.9819C1.23193 30.3208 9.64311 38.7319 19.9819 38.7319C30.3208 38.7319 38.7319 30.3208 38.7319 19.9819C38.7319 9.64311 30.3208 1.23193 19.9819 1.23193ZM2.50005 19.9819C2.49694 15.539 4.19219 11.2625 7.23822 8.02824L12.9173 13.7011C11.562 15.2206 10.7346 17.1377 10.5599 19.1667H7.58667C7.2368 19.1667 6.95261 19.4503 6.95261 19.8008C6.95261 20.1512 7.2368 20.4348 7.58667 20.4348H10.5365C10.633 22.5235 11.4247 24.5197 12.7848 26.1077L10.7688 28.1262C10.6072 28.2867 10.5441 28.5205 10.6024 28.7401C10.6604 28.9601 10.8317 29.1319 11.0513 29.1905C11.2707 29.2497 11.5048 29.1868 11.6656 29.0258L13.6697 27.022C15.2395 28.4364 17.2394 29.2811 19.3479 29.4218V32.2085C19.3479 32.5584 19.6315 32.8426 19.9819 32.8426C20.3324 32.8426 20.616 32.5584 20.616 32.2085V29.4218C22.7092 29.2822 24.696 28.448 26.2614 27.0514L31.9356 32.7257C28.7014 35.7717 24.4249 37.4669 19.9819 37.4638C10.3423 37.4638 2.50005 29.6216 2.50005 19.9819ZM19.9819 11.7981C23.1647 11.7961 26.0596 13.6397 27.4041 16.5243C28.7489 19.409 28.2994 22.812 26.2515 25.248L25.6415 24.6383C26.2534 23.6368 26.1003 22.3469 25.2707 21.5173C24.4407 20.6873 23.1508 20.5342 22.1499 21.1465L21.434 20.4306C22.6597 19.0144 22.583 16.892 21.2585 15.5676C19.9341 14.2431 17.812 14.1667 16.3955 15.3921L14.7204 13.7175C16.1929 12.4763 18.0565 11.7964 19.9819 11.7981ZM20.1325 28.1735C20.0335 28.1485 19.9304 28.1485 19.8313 28.1735C16.6478 28.1168 13.7863 26.2189 12.4955 23.3082C11.2053 20.3978 11.7196 17.0027 13.8152 14.6052L15.5931 16.3831C14.8319 17.7752 15.0796 19.5024 16.2016 20.6245C17.3237 21.746 19.0507 21.9942 20.443 21.2331L21.267 22.0571C20.6995 23.0515 20.8674 24.3026 21.6763 25.1121C22.4859 25.9217 23.737 26.089 24.7314 25.5215L25.3635 26.1538C23.9137 27.4242 22.0602 28.1398 20.1325 28.1735ZM20.5342 19.5307L17.2951 16.2919C18.2125 15.5605 19.5324 15.6347 20.3618 16.464C21.1912 17.2934 21.2656 18.6136 20.5345 19.5307H20.5342ZM19.4852 20.2752C18.6501 20.5653 17.7231 20.3527 17.0978 19.7277C16.4731 19.1027 16.2602 18.1754 16.5507 17.3407L19.4852 20.2752ZM24.6904 23.6872L23.101 22.0975C23.5511 21.9594 24.0408 22.0811 24.3736 22.414C24.7065 22.7472 24.8285 23.2369 24.6904 23.6872ZM23.7625 24.5531C23.3345 24.655 22.8836 24.5276 22.5719 24.2163C22.2606 23.9046 22.1332 23.454 22.2351 23.0254L23.7625 24.5531ZM32.8284 31.8252L29.3272 28.3238C29.2958 28.2513 29.2508 28.1853 29.195 28.1296L27.1791 26.1077C28.5392 24.5197 29.3309 22.5235 29.4274 20.4348H32.3772C32.7271 20.4348 33.0113 20.1512 33.0113 19.8008C33.0113 19.4503 32.7271 19.1667 32.3772 19.1667H29.4039C29.225 17.1236 28.3874 15.1942 27.0174 13.6685L29.195 11.494C29.3581 11.3344 29.4223 11.0995 29.364 10.879C29.3057 10.659 29.1333 10.4866 28.9125 10.4289C28.692 10.3709 28.4574 10.436 28.2983 10.5996L26.1091 12.7891C24.567 11.4708 22.6402 10.6862 20.616 10.5517V7.41853C20.616 7.06838 20.3324 6.78447 19.9819 6.78447C19.6315 6.78447 19.3479 7.06838 19.3479 7.41853V10.552C17.3237 10.6865 15.3969 11.4714 13.8548 12.7893L11.6656 10.6001C11.6095 10.5444 11.5439 10.4997 11.4714 10.4682L8.13864 7.13547C11.361 4.15256 15.5911 2.49694 19.9819 2.50005C29.6216 2.50005 37.4638 10.3423 37.4638 19.9819C37.4669 24.3728 35.8113 28.6029 32.8284 31.8252Z" fill="#971225"/>
</svg>
