<svg width="18" height="18" viewBox="0 0 18 18" fill="none" xmlns="http://www.w3.org/2000/svg">
<path d="M8.99493 18C8.20995 17.9538 7.42217 17.9322 6.64068 17.8539C5.99145 17.7888 5.34595 17.6737 4.70534 17.5497C4.24031 17.4598 3.77924 17.3389 3.32842 17.1973C2.43888 16.9176 1.59405 16.5494 0.891496 15.9347C0.519379 15.6091 0.232258 15.2262 0.0902107 14.7589C-0.00829083 14.4351 -0.0262214 14.1041 0.0368848 13.7673C0.165426 13.0817 0.409234 12.4356 0.781817 11.8406C0.985806 11.5149 1.21657 11.1984 1.47668 10.9125C1.76683 10.5936 2.06769 10.2747 2.44447 10.0427C2.91997 9.74986 3.37988 9.43271 3.92176 9.24693C4.33812 9.10419 4.75914 8.98576 5.19459 8.91751C5.42489 8.88138 5.65985 8.87469 5.89109 8.84302C6.12162 8.81135 6.32841 8.86376 6.53426 8.95765C6.72567 9.04508 6.92337 9.12024 7.12177 9.19228C7.32064 9.26432 7.51974 9.34104 7.72582 9.38743C7.92003 9.43115 8.12309 9.43851 8.32242 9.46126C8.5143 9.48312 8.70572 9.50966 8.89829 9.52348C8.98143 9.52928 9.06665 9.49917 9.15072 9.50074C9.5545 9.50809 9.94548 9.43226 10.3344 9.34238C10.5486 9.29287 10.7677 9.25518 10.9731 9.1818C11.189 9.10485 11.3904 8.99111 11.5991 8.89498C11.6365 8.87759 11.6773 8.85818 11.7176 8.85551C12.2476 8.82227 12.7701 8.87714 13.2813 9.00784C13.5267 9.07051 13.7628 9.16686 14.0022 9.25072C14.1862 9.3154 14.375 9.3716 14.5504 9.4539C15.5538 9.92405 16.3655 10.609 16.9917 11.4926C17.3054 11.9351 17.5636 12.4079 17.7252 12.9225C17.8186 13.2198 17.9099 13.5202 17.9672 13.8251C18.0524 14.2796 17.9686 14.7192 17.7511 15.1318C17.4402 15.7213 16.9354 16.129 16.3614 16.4671C15.8092 16.7925 15.2196 17.043 14.5979 17.2147C14.06 17.3632 13.5181 17.5038 12.9706 17.6142C11.5688 17.897 10.3407 17.9652 8.99493 18Z" fill="#333333"/>
<path d="M13.2594 4.08376C13.2689 6.38767 11.3441 7.92814 9.59875 8.13177C8.182 8.29704 6.96645 7.90852 5.96537 6.95127C5.14709 6.16865 4.744 5.20471 4.73492 4.08866C4.71722 1.86058 6.65232 -0.0122068 9.02497 5.99205e-05C11.342 0.0121036 13.2787 1.84876 13.2594 4.08376Z" fill="#333333"/>
</svg>
