<svg width="40" height="40" viewBox="0 0 40 40" fill="none" xmlns="http://www.w3.org/2000/svg">
<path d="M40 23.7496C40 22.748 39.6016 21.8146 38.915 21.1263C39.6934 20.2746 40.09 19.1329 39.9816 17.9446C39.7866 15.8263 37.8783 14.1663 35.635 14.1663H25.34C25.85 12.6179 26.6666 9.77965 26.6666 7.49965C26.6666 3.88465 23.595 0.833008 21.6666 0.833008C19.9366 0.833008 18.6983 1.80801 18.6466 1.84801C18.4483 2.00637 18.3333 2.24637 18.3333 2.49965V8.15129L13.5316 18.5496L13.3333 18.6513V18.3329C13.3333 17.8729 12.9599 17.4996 12.4999 17.4996H4.16664C1.86836 17.4996 0 19.368 0 21.6663V34.9996C0 37.298 1.86836 39.1663 4.16664 39.1663H9.16664C10.9683 39.1663 12.5083 38.0163 13.0883 36.4113C14.475 37.1246 16.3416 37.4996 17.5 37.4996H32.7984C34.6134 37.4996 36.2017 36.2763 36.575 34.5896C36.7666 33.7197 36.655 32.8446 36.275 32.0846C37.505 31.4663 38.3334 30.1946 38.3334 28.7496C38.3334 28.1596 38.1984 27.5946 37.9434 27.0846C39.1734 26.4646 40 25.1946 40 23.7496ZM36.485 25.8063C36.1634 25.8447 35.8916 26.0629 35.7884 26.3713C35.6867 26.6796 35.7717 27.0179 36.0084 27.2413C36.4317 27.6396 36.6667 28.1763 36.6667 28.7496C36.6667 29.8013 35.8717 30.6847 34.8201 30.8063C34.4984 30.8447 34.2267 31.0629 34.1234 31.3713C34.0218 31.6796 34.1068 32.0179 34.3434 32.2413C34.8918 32.7579 35.1118 33.4829 34.9468 34.2296C34.7418 35.1596 33.8384 35.833 32.7984 35.833H17.5C16.1466 35.833 13.8766 35.198 13.09 34.4096C12.8516 34.173 12.4916 34.103 12.1816 34.2296C11.87 34.358 11.6666 34.663 11.6666 34.9996C11.6666 36.378 10.545 37.4996 9.16664 37.4996H4.16664C2.78828 37.4996 1.66664 36.378 1.66664 34.9996V21.6663C1.66664 20.2879 2.78828 19.1663 4.16664 19.1663H11.6666V19.9996C11.6666 20.288 11.8166 20.5563 12.0633 20.7097C12.3066 20.8563 12.6133 20.8713 12.8733 20.7446L14.5399 19.9113C14.7083 19.8279 14.8433 19.6879 14.9233 19.5163L19.9233 8.68293C19.9733 8.57293 19.9999 8.45293 19.9999 8.33293V2.95129C20.3466 2.75965 20.9484 2.49965 21.6666 2.49965C22.58 2.49965 25 4.76965 25 7.49965C25 10.433 23.4034 14.6613 23.3884 14.703C23.2917 14.958 23.325 15.2464 23.48 15.473C23.6366 15.698 23.8934 15.833 24.1666 15.833H35.635C37.025 15.833 38.205 16.828 38.3216 18.098C38.41 19.048 37.9533 19.9514 37.135 20.4564C36.88 20.613 36.7284 20.8964 36.74 21.198C36.7516 21.4996 36.925 21.7696 37.1916 21.908C37.8966 22.2664 38.3333 22.973 38.3333 23.7496C38.3334 24.8013 37.5384 25.6847 36.485 25.8063Z" fill="#971225"/>
<path d="M12.5001 19.167C12.0401 19.167 11.6667 19.5404 11.6667 20.0004V35.0004C11.6667 35.4604 12.0401 35.8337 12.5001 35.8337C12.9601 35.8337 13.3335 35.4604 13.3335 35.0004V20.0004C13.3335 19.5404 12.9601 19.167 12.5001 19.167Z" fill="#971225"/>
</svg>
