<svg width="243" height="200" viewBox="0 0 243 200" fill="none" xmlns="http://www.w3.org/2000/svg">
<path opacity="0.2" d="M243 19.9262C220.689 37.1464 204.683 53.6285 194.982 69.3727C185.766 84.6248 181.159 101.599 181.159 120.295C187.464 116.359 194.74 114.391 202.985 114.391C214.141 114.391 223.114 118.327 229.904 126.199C237.18 133.579 240.817 143.173 240.817 154.982C240.817 168.266 236.21 179.09 226.994 187.454C218.263 195.818 206.38 200 191.344 200C156.907 200 139.689 176.876 139.689 130.627C139.689 118.327 141.144 107.011 144.054 96.6789C146.964 85.8549 151.572 75.5228 157.877 65.6826C164.668 55.3505 173.641 45.0185 184.796 34.6863C195.952 23.8622 209.775 12.3001 226.266 0L243 19.9262ZM103.311 19.9262C81 37.1464 64.994 53.6285 55.2934 69.3727C46.0778 84.6248 41.4701 101.599 41.4701 120.295C47.7755 116.359 55.0509 114.391 63.2964 114.391C74.4521 114.391 83.4252 118.327 90.2156 126.199C97.491 133.579 101.129 143.173 101.129 154.982C101.129 168.266 96.521 179.09 87.3054 187.454C78.5749 195.818 66.6916 200 51.6557 200C17.2186 200 0 176.876 0 130.627C0 118.327 1.45509 107.011 4.36527 96.6789C7.27545 85.8549 11.8832 75.5228 18.1886 65.6826C24.979 55.3505 33.9521 45.0185 45.1078 34.6863C56.2635 23.8622 70.0868 12.3001 86.5778 0L103.311 19.9262Z" fill="#D2D2D2"/>
</svg>
