<svg width="100" height="96" fill="none" xmlns="http://www.w3.org/2000/svg"><path d="M99.418 47.63c0 5.093-5.61 9.244-7.09 13.856-1.557 4.766.5 11.415-2.402 15.374-2.92 4.016-9.877 4.112-13.892 7.014-3.959 2.883-6.188 9.493-10.972 11.05-4.593 1.499-10.261-2.498-15.372-2.498-5.092 0-10.76 3.997-15.372 2.498-4.765-1.557-6.994-8.168-10.972-11.05-4.016-2.921-10.972-3.017-13.892-7.014-2.882-3.96-.846-10.608-2.402-15.374C5.61 56.874 0 52.742 0 47.63s5.61-9.243 7.09-13.856c1.557-4.765-.5-11.415 2.402-15.373 2.92-4.017 9.877-4.113 13.893-7.015 3.958-2.882 6.187-9.493 10.971-11.05 4.593-1.499 10.261 2.499 15.372 2.499 5.092 0 10.76-3.998 15.372-2.499 4.766 1.557 6.995 8.168 10.972 11.05 4.016 2.921 10.972 3.017 13.892 7.015 2.883 3.958.846 10.608 2.402 15.373 1.441 4.613 7.052 8.764 7.052 13.856z" fill="#EBEDF2"/><path d="M94.176 47.63c0 4.556-5.019 8.269-6.342 12.395-1.392 4.263.447 10.211-2.149 13.752-2.612 3.593-8.835 3.68-12.427 6.275-3.541 2.579-5.535 8.492-9.815 9.885-4.108 1.34-9.179-2.235-13.751-2.235-4.555 0-9.626 3.576-13.751 2.235-4.263-1.393-6.257-7.306-9.815-9.885-3.592-2.613-9.815-2.699-12.427-6.275-2.579-3.54-.757-9.489-2.149-13.752-1.29-4.126-6.308-7.822-6.308-12.395 0-4.573 5.019-8.269 6.342-12.395 1.393-4.263-.447-10.21 2.149-13.752 2.613-3.593 8.835-3.68 12.427-6.275 3.541-2.579 5.535-8.492 9.815-9.885 4.108-1.34 9.179 2.235 13.751 2.235 4.555 0 9.626-3.576 13.751-2.235 4.263 1.393 6.257 7.306 9.815 9.885 3.593 2.613 9.815 2.699 12.428 6.275 2.578 3.541.756 9.49 2.148 13.753 1.29 4.125 6.308 7.839 6.308 12.394z" fill="#DC1B48"/></svg>