<svg width="49" height="48" viewBox="0 0 49 48" fill="none" xmlns="http://www.w3.org/2000/svg">
<path d="M40.8826 4.00391C40.6199 4.00376 40.3597 4.05539 40.117 4.15584C39.8743 4.2563 39.6538 4.40361 39.468 4.58936C39.2823 4.77511 39.135 4.99564 39.0345 5.23836C38.9341 5.48108 38.8824 5.74122 38.8826 6.00391V7.27735C37.1958 9.36875 35.0639 11.0577 32.6421 12.2213C30.2202 13.385 27.5694 13.9939 24.8826 14.0039H12.8826C11.2918 14.0056 9.76669 14.6383 8.64185 15.7632C7.517 16.888 6.8843 18.4131 6.88257 20.0039V24.0039C6.8843 25.5947 7.517 27.1198 8.64185 28.2446C9.76669 29.3695 11.2918 30.0022 12.8826 30.0039H13.8501L9.04469 41.2167C8.9141 41.5208 8.86108 41.8526 8.89039 42.1823C8.91971 42.512 9.03043 42.8292 9.21263 43.1055C9.39483 43.3818 9.6428 43.6086 9.93427 43.7654C10.2257 43.9222 10.5516 44.0041 10.8826 44.0039H18.8826C19.2741 44.0041 19.657 43.8893 19.9838 43.6737C20.3105 43.458 20.5667 43.1511 20.7205 42.791L26.168 30.0799C28.6293 30.2606 31.0274 30.944 33.2142 32.0878C35.4011 33.2316 37.3302 34.8115 38.8826 36.73V38.0039C38.8826 38.5343 39.0933 39.043 39.4684 39.4181C39.8434 39.7932 40.3521 40.0039 40.8826 40.0039C41.413 40.0039 41.9217 39.7932 42.2968 39.4181C42.6719 39.043 42.8826 38.5343 42.8826 38.0039V6.00391C42.8827 5.74122 42.8311 5.48108 42.7306 5.23836C42.6302 4.99564 42.4829 4.7751 42.2971 4.58935C42.1114 4.40361 41.8908 4.25629 41.6481 4.15584C41.4054 4.05538 41.1453 4.00375 40.8826 4.00391ZM12.8826 26.0039C12.3522 26.0036 11.8437 25.7927 11.4687 25.4177C11.0938 25.0427 10.8829 24.5342 10.8826 24.0039V20.0039C10.8829 19.4736 11.0938 18.9651 11.4688 18.5901C11.8437 18.2151 12.3522 18.0043 12.8826 18.0039H14.8826V26.0039H12.8826ZM17.5642 40.0039H13.9158L18.2009 30.0039H21.8494L17.5642 40.0039ZM38.8826 31.0475C34.9391 27.7987 29.9919 26.0165 24.8826 26.0038H18.8826V18.0038H24.8826C29.992 17.9907 34.9392 16.2081 38.8826 12.9591V31.0475Z" fill="white"/>
</svg>
