<?xml version="1.0" encoding="UTF-8"?><!DOCTYPE svg PUBLIC "-//W3C//DTD SVG 1.1//EN" "http://www.w3.org/Graphics/SVG/1.1/DTD/svg11.dtd"><svg xmlns="http://www.w3.org/2000/svg" xmlns:xlink="http://www.w3.org/1999/xlink"><symbol id="cystinorm-logo-2" viewBox="0 0 180 26"><path d="M11.189 23.704c-2.012 0-3.877-.44-5.513-1.322-1.636-.881-2.944-2.122-3.877-3.689C.867 17.126.393 15.347.393 13.39c0-1.959.474-3.738 1.423-5.305.932-1.566 2.24-2.807 3.893-3.688 1.636-.882 3.484-1.322 5.513-1.322 1.635 0 3.157.294 4.514.865a9.156 9.156 0 013.174 2.17c.147.164.229.376.229.604a.755.755 0 01-.262.572L17.16 8.9a.818.818 0 01-.573.229.818.818 0 01-.572-.229c-1.26-1.224-2.83-1.86-4.614-1.86-1.259 0-2.388.277-3.386.816-.981.539-1.766 1.29-2.306 2.252-.556.963-.834 2.073-.834 3.297 0 1.224.278 2.334.834 3.297a5.88 5.88 0 002.306 2.252c.982.54 2.127.816 3.386.816 1.816 0 3.338-.62 4.614-1.876a.874.874 0 01.588-.245c.213 0 .426.081.573.228l1.734 1.632c.163.147.245.36.262.572 0 .228-.082.44-.23.587a9.223 9.223 0 01-3.19 2.171c-1.406.571-2.927.865-4.563.865z" fill="#DC1B48"/><path d="M11.222 3.482c1.586 0 3.042.277 4.35.832a8.99 8.99 0 013.043 2.073.419.419 0 01-.016.604l-1.718 1.616a.395.395 0 01-.294.114.42.42 0 01-.294-.114c-1.358-1.306-2.994-1.975-4.908-1.975-1.325 0-2.519.294-3.582.865a6.189 6.189 0 00-2.454 2.4c-.589 1.027-.883 2.186-.883 3.492s.294 2.465.883 3.493a6.127 6.127 0 002.47 2.399c1.047.571 2.241.865 3.583.865 1.913 0 3.55-.67 4.907-1.991a.42.42 0 01.294-.114.42.42 0 01.295.114l1.734 1.632c.163.163.18.424.016.604a8.677 8.677 0 01-3.059 2.073c-1.325.555-2.78.832-4.367.832-1.963 0-3.73-.424-5.317-1.273a9.338 9.338 0 01-3.713-3.542C1.292 16.98.851 15.282.851 13.39c0-1.893.458-3.59 1.357-5.092.9-1.502 2.143-2.677 3.73-3.542 1.554-.849 3.32-1.273 5.284-1.273zm0-.816c-2.094 0-4.008.457-5.693 1.37-1.718.931-3.075 2.22-4.057 3.836C.491 9.504 0 11.35 0 13.39c0 2.024.49 3.884 1.456 5.5.965 1.632 2.323 2.922 4.024 3.836 1.701.914 3.615 1.37 5.692 1.37 1.685 0 3.272-.293 4.679-.88a9.912 9.912 0 003.337-2.27c.229-.244.344-.554.344-.88a1.255 1.255 0 00-.393-.866l-1.734-1.632a1.275 1.275 0 00-.85-.343c-.328 0-.639.131-.868.36-1.21 1.175-2.617 1.762-4.335 1.762-1.177 0-2.257-.26-3.19-.767a5.356 5.356 0 01-2.159-2.105c-.523-.898-.785-1.943-.785-3.085 0-1.159.262-2.187.785-3.085A5.573 5.573 0 018.163 8.2c.932-.506 1.995-.767 3.19-.767 1.717 0 3.124.57 4.334 1.746.23.229.54.343.867.343.311 0 .622-.114.85-.327l1.718-1.615a1.24 1.24 0 00.05-1.763 10.009 10.009 0 00-3.321-2.269c-1.374-.587-2.945-.881-4.63-.881z" fill="#FFFDFD"/><path d="M28.921 23.427a.837.837 0 01-.834-.833v-6.202L20.906 4.608a.802.802 0 01-.017-.832.833.833 0 01.72-.425h2.863c.294 0 .556.147.72.408l5.201 8.585h.033l5.25-8.585a.83.83 0 01.704-.391h2.569c.294 0 .572.163.72.424a.802.802 0 01-.017.832l-7.149 11.72v6.267a.837.837 0 01-.834.832h-2.748v-.016z" fill="#DC1B48"/><path d="M38.948 3.758c.328 0 .54.36.36.637L32.16 16.114a.531.531 0 00-.066.212v6.251a.433.433 0 01-.425.424h-2.764a.433.433 0 01-.426-.424v-6.202a.327.327 0 00-.065-.212L21.233 4.379a.422.422 0 01.36-.637h2.862a.45.45 0 01.36.196l5.202 8.585a.43.43 0 00.72 0l5.25-8.585a.41.41 0 01.36-.196h2.601v.016zm0-.816H36.38c-.425 0-.834.229-1.063.588l-4.924 8.03-4.842-8.03a1.256 1.256 0 00-1.063-.604h-2.863a1.244 1.244 0 00-1.063 1.877l7.116 11.686v6.088c0 .685.556 1.24 1.243 1.24h2.765c.687 0 1.243-.555 1.243-1.24V16.44l7.1-11.637c.228-.375.244-.865.015-1.24a1.306 1.306 0 00-1.096-.62z" fill="#FFFDFD"/><path d="M48.534 23.704c-1.537 0-3.026-.212-4.465-.653-1.293-.391-2.356-.897-3.19-1.534a.837.837 0 01-.262-.996l.9-2.007a.826.826 0 011.226-.343 9.82 9.82 0 002.421 1.175c1.113.376 2.225.572 3.354.572 1.358 0 2.372-.213 3.01-.62.589-.376.883-.866.883-1.47 0-.44-.147-.783-.458-1.06a3.946 3.946 0 00-1.374-.751c-.589-.196-1.423-.425-2.47-.686-1.489-.343-2.715-.702-3.648-1.06a6.436 6.436 0 01-2.519-1.747c-.72-.816-1.08-1.926-1.08-3.28 0-1.143.311-2.188.95-3.134.62-.93 1.57-1.682 2.813-2.22 1.227-.539 2.731-.8 4.482-.8 1.21 0 2.42.147 3.599.457a10.3 10.3 0 012.764 1.11c.36.212.507.636.343 1.028l-.817 2.008a.836.836 0 01-.77.522.873.873 0 01-.392-.098 10.423 10.423 0 00-2.175-.865 9.704 9.704 0 00-2.585-.375c-1.325 0-2.323.212-2.944.636-.573.392-.867.914-.867 1.567 0 .424.147.767.458 1.045.36.31.818.555 1.374.75.589.196 1.423.425 2.47.686 1.456.326 2.666.685 3.599 1.044a6.49 6.49 0 012.535 1.747c.72.8 1.096 1.893 1.096 3.248 0 1.142-.31 2.187-.949 3.117-.621.93-1.57 1.665-2.83 2.204-1.21.506-2.731.783-4.482.783z" fill="#DC1B48"/><path d="M49.123 3.482c1.178 0 2.355.146 3.5.44 1.015.261 1.898.62 2.65 1.077.18.115.262.327.18.523l-.818 2.007a.425.425 0 01-.588.212 10.338 10.338 0 00-2.258-.897 9.881 9.881 0 00-2.683-.392c-1.423 0-2.486.245-3.173.718-.687.474-1.047 1.11-1.047 1.894 0 .554.197.995.59 1.354.392.343.899.62 1.504.833.605.195 1.44.424 2.503.685 1.44.326 2.617.67 3.55 1.028.932.36 1.717.898 2.371 1.633.655.734.982 1.73.982 2.97 0 1.06-.295 2.024-.867 2.889-.589.865-1.472 1.55-2.65 2.056s-2.634.767-4.319.767c-1.505 0-2.944-.212-4.334-.636-1.244-.376-2.274-.865-3.06-1.469a.406.406 0 01-.13-.506l.9-2.008c.065-.163.228-.244.392-.244a.37.37 0 01.245.081c.72.49 1.554.898 2.52 1.224 1.16.392 2.322.588 3.484.588 1.44 0 2.519-.229 3.239-.686.703-.457 1.063-1.06 1.063-1.811 0-.555-.196-1.012-.589-1.355-.393-.359-.9-.636-1.505-.832a38.09 38.09 0 00-2.503-.686c-1.472-.342-2.682-.702-3.599-1.044a5.9 5.9 0 01-2.355-1.633c-.654-.75-.981-1.746-.981-3.019 0-1.06.294-2.024.866-2.905.59-.865 1.456-1.567 2.634-2.073 1.145-.522 2.585-.783 4.286-.783zm0-.816c-1.8 0-3.37.277-4.646.832-1.308.571-2.323 1.37-2.993 2.367a5.976 5.976 0 00-1.015 3.362c0 1.469.393 2.66 1.195 3.558a6.69 6.69 0 002.682 1.86c.95.36 2.192.719 3.697 1.078 1.03.244 1.849.473 2.421.669.507.163.916.392 1.227.669.23.196.327.44.327.75s-.081.735-.687 1.127c-.572.375-1.505.555-2.78.555-1.064 0-2.16-.18-3.223-.555-.884-.31-1.669-.685-2.307-1.126a1.227 1.227 0 00-.703-.212c-.49 0-.932.293-1.129.734l-.9 2.008a1.235 1.235 0 00.377 1.485c.85.653 1.98 1.191 3.304 1.6 1.472.44 3.01.669 4.58.669 1.8 0 3.37-.278 4.646-.833 1.325-.571 2.34-1.37 2.994-2.35a5.887 5.887 0 001.014-3.346c0-1.453-.41-2.628-1.194-3.51a6.976 6.976 0 00-2.683-1.86c-.949-.375-2.192-.734-3.664-1.06-1.03-.245-1.849-.474-2.421-.67-.507-.163-.916-.392-1.227-.669-.213-.196-.31-.424-.31-.734 0-.523.212-.898.686-1.225.556-.375 1.456-.57 2.715-.57.786 0 1.62.113 2.47.358.72.196 1.424.474 2.094.833.18.098.377.147.573.147.507 0 .965-.294 1.145-.768l.818-2.007a1.248 1.248 0 00-.507-1.534c-.834-.49-1.8-.882-2.88-1.16a14.911 14.911 0 00-3.696-.472z" fill="#FFFDFD"/><path d="M65.498 23.427a.837.837 0 01-.835-.832V7.203s0-.016-.016-.016h-5.595a.837.837 0 01-.834-.832V4.184c0-.457.376-.832.834-.832h15.622c.458 0 .835.375.835.832v2.187a.837.837 0 01-.835.832H69.08c-.016 0-.016 0-.016.017v15.39a.837.837 0 01-.835.833h-2.731v-.016z" fill="#DC1B48"/><path d="M74.69 3.758c.23 0 .426.196.426.425V6.37a.433.433 0 01-.425.424h-5.595a.433.433 0 00-.425.425v15.39a.433.433 0 01-.425.425H65.48a.433.433 0 01-.425-.424V7.202a.433.433 0 00-.425-.424h-5.595a.433.433 0 01-.425-.424V4.183c0-.229.196-.425.425-.425h15.655zm0-.816H59.07c-.687 0-1.243.555-1.243 1.24V6.37c0 .685.556 1.24 1.243 1.24h5.185v15c0 .685.557 1.24 1.244 1.24h2.764c.687 0 1.243-.555 1.243-1.24V7.594h5.186c.687 0 1.243-.555 1.243-1.24V4.183c0-.686-.556-1.24-1.243-1.24z" fill="#FFFDFD"/><path d="M78.763 23.427a.837.837 0 01-.834-.832V4.183c0-.457.376-.832.834-.832h2.749c.458 0 .834.375.834.832v18.41a.837.837 0 01-.834.833h-2.749z" fill="#DC1B48"/><path d="M81.512 3.758c.229 0 .425.196.425.425v18.41a.433.433 0 01-.425.425h-2.765a.433.433 0 01-.425-.425V4.183c0-.229.196-.425.425-.425h2.765zm0-.816h-2.765c-.687 0-1.243.555-1.243 1.24v18.411c0 .686.556 1.24 1.243 1.24h2.765c.687 0 1.243-.554 1.243-1.24V4.183c0-.686-.556-1.24-1.243-1.24z" fill="#FFFDFD"/><path d="M176.45 26H94.071a3.542 3.542 0 01-3.55-3.542V3.542A3.542 3.542 0 0194.072 0h82.379A3.543 3.543 0 01180 3.542v18.916A3.553 3.553 0 01176.45 26z" fill="#fff"/><path d="M118.935.914c1.685.98 2.568 2.514 2.389 4.113-.148 1.338-1.047 2.383-2.34 2.742-.065.016-.13 0-.163-.065-1.08-1.616-1.538-3.264-1.292-4.668V3.02c.163-.882.605-1.633 1.243-2.09.065-.049.114-.049.163-.016z" fill="#41A54B"/><path d="M120.326 6.692c-1.047-3.738-5.219-2.449-6.396-2.09.687 2.498 3.304 4.652 6.396 2.09z" fill="#41A54B"/><path d="M111.738 5.19v15.62a.544.544 0 01-.54.539h-2.388a.55.55 0 01-.425-.196l-7.231-8.781c-.327-.392-.965-.163-.965.343v8.095a.544.544 0 01-.54.539h-2.731a.544.544 0 01-.54-.539V5.19c0-.293.245-.538.54-.538h2.404c.164 0 .311.065.426.196l7.197 8.764c.327.392.965.163.965-.342V5.19c0-.293.246-.538.54-.538h2.748c.295 0 .54.245.54.538zM148.036 21.349a.52.52 0 01-.441-.229l-3.059-4.423h-3.027a.544.544 0 00-.539.539v3.574a.545.545 0 01-.54.539h-2.797a.544.544 0 01-.54-.539V5.19c0-.293.245-.538.54-.538h6.706c1.489 0 2.765.245 3.861.734 1.096.49 1.93 1.192 2.519 2.106.589.914.883 1.975.883 3.215 0 1.24-.294 2.318-.899 3.215-.491.735-1.162 1.339-1.996 1.796-.278.163-.376.522-.196.783l2.797 3.999a.54.54 0 01-.442.849h-2.83zm-1.259-12.796c-.606-.506-1.489-.751-2.65-.751h-2.618a.544.544 0 00-.539.539v4.733c0 .293.245.538.539.538h2.618c1.161 0 2.044-.26 2.65-.767.605-.506.916-1.224.916-2.154-.017-.914-.311-1.632-.916-2.138zM170.496 20.81l-.016-7.525c0-.555-.72-.75-1.014-.277l-3.763 6.316a.542.542 0 01-.458.261h-1.128a.521.521 0 01-.458-.26l-3.746-6.138c-.279-.473-.998-.26-.998.278v7.328a.544.544 0 01-.54.539h-2.552a.544.544 0 01-.54-.539V5.173c0-.293.246-.538.54-.538h2.356c.196 0 .359.098.458.261l5.643 9.336c.213.343.72.343.933 0l5.545-9.336a.549.549 0 01.474-.261h2.323c.295 0 .54.245.54.539l.049 15.62a.544.544 0 01-.54.538h-2.552a.515.515 0 01-.556-.523z" fill="#333"/><path d="M124.416 7.638c1.194 0 2.224.245 3.124.735.867.473 1.538 1.093 2.028 1.91.491.8.72 1.697.72 2.741 0 1.045-.229 1.943-.72 2.742-.49.816-1.161 1.437-2.028 1.91-.916.49-1.93.734-3.124.734-1.195 0-2.225-.244-3.157-.734-.867-.473-1.538-1.094-2.013-1.893-.49-.8-.719-1.698-.719-2.742 0-1.045.229-1.943.719-2.742a5.23 5.23 0 012.013-1.894c.916-.538 1.946-.767 3.157-.767zm0-3.264c-1.734 0-3.305.375-4.695 1.126-1.391.751-2.487 1.78-3.272 3.085-.785 1.306-1.178 2.79-1.178 4.423 0 1.632.393 3.117 1.178 4.423a8.263 8.263 0 003.272 3.085c1.39.75 2.961 1.126 4.695 1.126 1.734 0 3.304-.375 4.694-1.126 1.391-.75 2.487-1.78 3.272-3.085.802-1.306 1.194-2.79 1.194-4.423 0-1.632-.392-3.117-1.194-4.423A8.493 8.493 0 00129.11 5.5c-1.39-.767-2.96-1.126-4.694-1.126z" fill="#DC1B48"/></symbol><symbol id="cystinorm-logo" viewBox="0 0 139 20"><g fill="var(--white-text)"><path d="M8.734 17.928c-1.57 0-3.026-.338-4.303-1.016-1.277-.678-2.298-1.633-3.026-2.838C.677 12.87.307 11.5.307 9.994c0-1.507.37-2.875 1.11-4.08.728-1.206 1.75-2.16 3.04-2.838 1.276-.678 2.72-1.017 4.303-1.017 1.276 0 2.464.226 3.524.665.957.39 1.787.955 2.477 1.67a.683.683 0 01.179.465.577.577 0 01-.205.44l-1.34 1.242a.644.644 0 01-.447.176.644.644 0 01-.447-.176C11.518 5.6 10.29 5.11 8.9 5.11c-.983 0-1.864.213-2.643.628-.766.414-1.38.992-1.8 1.732-.435.741-.652 1.595-.652 2.536 0 .942.217 1.796.651 2.536a4.558 4.558 0 001.8 1.733c.767.414 1.66.628 2.644.628 1.417 0 2.605-.477 3.6-1.444a.687.687 0 01.46-.188c.166 0 .332.062.447.175l1.354 1.256a.648.648 0 01.204.44.63.63 0 01-.179.451 7.203 7.203 0 01-2.49 1.67c-1.098.452-2.285.665-3.562.665z"/><path d="M8.76 2.386c1.238 0 2.374.213 3.396.64.92.377 1.71.916 2.375 1.594a.319.319 0 01-.013.465l-1.34 1.243a.31.31 0 01-.23.088.331.331 0 01-.23-.088c-1.06-1.005-2.337-1.52-3.831-1.52-1.034 0-1.966.227-2.796.666A4.83 4.83 0 004.163 7.32c-.46.79-.69 1.682-.69 2.686 0 1.005.23 1.896.69 2.687A4.751 4.751 0 006.09 14.54c.817.44 1.749.665 2.796.665 1.494 0 2.77-.515 3.83-1.532a.331.331 0 01.23-.087c.077 0 .166.025.23.087l1.354 1.256a.33.33 0 01.012.464 6.778 6.778 0 01-2.387 1.595c-1.035.427-2.17.64-3.41.64-1.532 0-2.91-.326-4.15-.979a7.244 7.244 0 01-2.898-2.724C.983 12.756.638 11.45.638 10.006c0-1.456.358-2.762 1.06-3.917.703-1.155 1.673-2.059 2.911-2.724 1.24-.653 2.618-.98 4.15-.98zm0-.628c-1.635 0-3.129.351-4.444 1.054-1.34.716-2.4 1.708-3.167 2.95C.383 7.019 0 8.438 0 10.007c0 1.557.383 2.989 1.136 4.231.754 1.256 1.814 2.248 3.142 2.95 1.327.704 2.821 1.055 4.443 1.055 1.315 0 2.554-.226 3.652-.678a7.743 7.743 0 002.605-1.745.971.971 0 00.268-.678.959.959 0 00-.307-.665l-1.353-1.256a.965.965 0 00-1.34.013c-.946.904-2.044 1.356-3.385 1.356-.919 0-1.762-.2-2.49-.59a4.154 4.154 0 01-1.685-1.62c-.408-.69-.613-1.494-.613-2.373 0-.891.205-1.682.613-2.372a4.322 4.322 0 011.686-1.62c.727-.39 1.557-.59 2.49-.59 1.34 0 2.438.44 3.383 1.343a.953.953 0 00.677.264.991.991 0 00.664-.251l1.34-1.243a.947.947 0 00.038-1.356 7.818 7.818 0 00-2.591-1.745c-1.073-.452-2.298-.678-3.614-.678zM22.575 17.728a.648.648 0 01-.65-.64v-4.772l-5.606-9.064a.61.61 0 01-.013-.64.652.652 0 01.562-.327h2.234c.23 0 .434.113.562.314l4.06 6.604h.026l4.099-6.604a.65.65 0 01.549-.301h2.005c.23 0 .446.125.561.326a.61.61 0 01-.012.64l-5.58 9.015V17.1c0 .351-.294.64-.652.64h-2.145v-.012z"/><path d="M30.402 2.599c.256 0 .422.276.281.49l-5.58 9.014a.405.405 0 00-.05.163v4.809a.335.335 0 01-.333.326h-2.158a.335.335 0 01-.332-.326v-4.771a.25.25 0 00-.05-.164l-5.606-9.064a.324.324 0 01.28-.49h2.235c.115 0 .217.063.281.15l4.06 6.605c.064.1.18.15.282.15.114 0 .217-.05.28-.15l4.1-6.604c.063-.1.165-.15.28-.15h2.03v.012zm0-.628h-2.004c-.332 0-.651.176-.83.452L23.724 8.6l-3.792-6.177a.984.984 0 00-.83-.465h-2.235a.97.97 0 00-.842.49.945.945 0 00.013.954l5.554 8.99v4.683c0 .527.434.954.97.954h2.158c.537 0 .97-.427.97-.954v-4.721l5.542-8.952a.916.916 0 00.013-.954.958.958 0 00-.843-.477zM37.885 17.929c-1.2 0-2.362-.164-3.486-.502-1.009-.302-1.839-.691-2.49-1.18a.638.638 0 01-.204-.767l.728-1.544a.646.646 0 01.587-.377c.128 0 .255.038.37.114a7.715 7.715 0 001.89.903 8.24 8.24 0 002.618.44c1.06 0 1.851-.163 2.349-.477.46-.289.69-.666.69-1.13 0-.34-.115-.603-.358-.816a3.092 3.092 0 00-1.073-.578 28.49 28.49 0 00-1.928-.527c-1.162-.264-2.12-.54-2.847-.816a5.025 5.025 0 01-1.966-1.343c-.562-.628-.843-1.482-.843-2.524 0-.879.242-1.682.74-2.41.486-.716 1.226-1.294 2.197-1.708.957-.414 2.132-.615 3.498-.615.945 0 1.89.113 2.81.351.817.201 1.532.49 2.157.854a.62.62 0 01.268.791l-.638 1.544a.653.653 0 01-.907.327 8.21 8.21 0 00-1.698-.666 7.68 7.68 0 00-2.017-.288c-1.035 0-1.813.163-2.299.49-.447.3-.676.702-.676 1.204 0 .327.114.59.357.804.281.238.639.427 1.073.577.46.151 1.11.327 1.928.528 1.136.25 2.081.527 2.809.803.766.29 1.43.741 1.979 1.344.562.615.855 1.456.855 2.498 0 .879-.242 1.682-.74 2.398-.485.716-1.226 1.28-2.209 1.695-.983.402-2.158.603-3.524.603z"/><path d="M38.344 2.386c.92 0 1.84.113 2.733.339.792.2 1.481.477 2.068.828.14.088.205.251.14.402l-.637 1.544a.332.332 0 01-.46.163 8.138 8.138 0 00-1.762-.69 7.818 7.818 0 00-2.094-.301c-1.111 0-1.941.188-2.477.552-.537.364-.818.854-.818 1.456 0 .427.154.766.46 1.042.306.264.702.477 1.175.64.472.151 1.123.327 1.953.528 1.124.251 2.043.515 2.771.791a4.69 4.69 0 011.852 1.255c.51.565.766 1.331.766 2.285 0 .816-.23 1.557-.677 2.223-.46.665-1.15 1.192-2.069 1.582-.919.389-2.055.59-3.37.59a11.66 11.66 0 01-3.384-.49c-.97-.289-1.775-.665-2.388-1.13a.31.31 0 01-.102-.39l.702-1.543c.051-.126.179-.189.307-.189.063 0 .127.013.191.063a8.11 8.11 0 001.967.942 8.58 8.58 0 002.72.452c1.123 0 1.966-.176 2.527-.528.55-.351.83-.816.83-1.393 0-.427-.153-.779-.46-1.042-.306-.277-.702-.49-1.174-.64a30.08 30.08 0 00-1.954-.528c-1.149-.264-2.094-.54-2.809-.803a4.608 4.608 0 01-1.838-1.256c-.511-.577-.767-1.343-.767-2.323 0-.816.23-1.556.677-2.234.46-.666 1.137-1.206 2.056-1.595.894-.402 2.017-.602 3.345-.602zm0-.628c-1.404 0-2.63.213-3.626.64-1.021.44-1.813 1.055-2.337 1.82a4.55 4.55 0 00-.791 2.587c0 1.13.306 2.046.932 2.737a5.224 5.224 0 002.094 1.431c.74.276 1.711.552 2.886.829.804.188 1.442.364 1.89.514.395.126.714.302.957.515.179.15.256.34.256.578 0 .238-.064.565-.537.866-.447.289-1.174.427-2.17.427-.83 0-1.686-.138-2.516-.427-.69-.239-1.302-.527-1.8-.866a.968.968 0 00-.55-.163.969.969 0 00-.88.564l-.703 1.545a.942.942 0 00.294 1.142c.664.503 1.545.917 2.58 1.23 1.148.34 2.349.515 3.575.515 1.404 0 2.63-.213 3.626-.64 1.034-.44 1.826-1.055 2.337-1.808a4.482 4.482 0 00.791-2.574c0-1.117-.32-2.02-.932-2.699a5.447 5.447 0 00-2.094-1.431c-.74-.289-1.711-.565-2.86-.816a21.795 21.795 0 01-1.89-.515 2.645 2.645 0 01-.958-.515.708.708 0 01-.242-.565c0-.401.166-.69.536-.941.434-.289 1.136-.44 2.12-.44.612 0 1.264.088 1.928.277.562.15 1.11.364 1.634.64.14.075.294.113.447.113a.943.943 0 00.894-.59l.638-1.545a.953.953 0 00-.396-1.18 8.792 8.792 0 00-2.247-.891 11.223 11.223 0 00-2.886-.364zM51.126 17.728a.649.649 0 01-.651-.64V5.247s0-.013-.013-.013h-4.367a.649.649 0 01-.651-.64V2.913c0-.352.293-.64.651-.64H58.29c.358 0 .651.288.651.64v1.682c0 .352-.293.64-.65.64h-4.368c-.012 0-.012 0-.012.013v11.84c0 .35-.294.64-.652.64h-2.132z"/><path d="M58.302 2.599c.179 0 .332.15.332.326v1.683a.335.335 0 01-.332.326h-4.367a.335.335 0 00-.332.327V17.1a.335.335 0 01-.332.326h-2.158a.335.335 0 01-.332-.326V5.248a.335.335 0 00-.332-.326h-4.354a.335.335 0 01-.332-.327V2.913c0-.176.153-.327.332-.327h12.207V2.6zm0-.628H46.095a.962.962 0 00-.97.954v1.683c0 .527.434.954.97.954h4.048V17.1c0 .527.434.954.97.954h2.158c.536 0 .97-.427.97-.954V5.55h4.048c.536 0 .97-.428.97-.955V2.913c.013-.515-.434-.942-.957-.942zM61.469 17.728a.649.649 0 01-.652-.64V2.912c0-.352.294-.64.652-.64h2.157c.358 0 .652.288.652.64v14.162c0 .351-.294.64-.652.64H61.47v.013z"/><path d="M63.626 2.599c.18 0 .332.15.332.326v14.162a.335.335 0 01-.332.327H61.47a.335.335 0 01-.333-.327V2.913c0-.176.154-.327.332-.327h2.158V2.6zm0-.628H61.47a.962.962 0 00-.971.954v14.162c0 .528.434.954.97.954h2.158c.537 0 .97-.426.97-.954V2.913c0-.515-.433-.942-.97-.942zM136.229 20H71.926c-1.532 0-2.77-1.218-2.77-2.724V2.724c0-1.506 1.238-2.724 2.77-2.724h64.303C137.761 0 139 1.218 139 2.724v14.552c0 1.506-1.239 2.724-2.771 2.724z"/></g><g fill="var(--black-text)"><path d="M85.73 3.992v12.015a.422.422 0 01-.422.415h-1.865a.433.433 0 01-.331-.15l-5.644-6.755c-.256-.302-.754-.126-.754.263v6.228a.422.422 0 01-.42.414h-2.146a.422.422 0 01-.421-.415V3.992c0-.226.191-.414.42-.414h1.878c.128 0 .242.05.332.15l5.618 6.743c.256.301.754.125.754-.264V3.992c0-.226.191-.414.42-.414h2.146c.243 0 .434.188.434.414zM114.063 16.422a.41.41 0 01-.345-.176l-2.388-3.402h-2.362a.421.421 0 00-.421.414v2.75a.422.422 0 01-.422.414h-2.183a.421.421 0 01-.421-.415V3.992c0-.226.191-.414.421-.414h5.235c1.162 0 2.158.188 3.013.565.856.377 1.507.917 1.967 1.62.46.703.689 1.519.689 2.473s-.229 1.783-.702 2.473a4.343 4.343 0 01-1.558 1.381c-.217.126-.293.402-.153.603l2.184 3.076a.414.414 0 01-.345.653h-2.209zm-.996-9.843c-.473-.39-1.162-.578-2.069-.578h-2.043a.421.421 0 00-.421.415v3.64c0 .227.191.415.421.415h2.043c.907 0 1.596-.201 2.069-.59.472-.39.715-.942.715-1.658 0-.703-.243-1.255-.715-1.644zM131.594 16.008l-.013-5.788c0-.427-.561-.578-.791-.214l-2.937 4.859a.425.425 0 01-.358.2h-.881a.408.408 0 01-.357-.2l-2.924-4.72c-.217-.365-.779-.202-.779.213v5.637a.422.422 0 01-.421.414h-1.992a.422.422 0 01-.422-.414V3.992c0-.226.192-.414.422-.414h1.838a.41.41 0 01.358.201l4.405 7.181a.434.434 0 00.728 0l4.328-7.181a.43.43 0 01.371-.2h1.813c.23 0 .421.187.421.413l.039 12.015a.422.422 0 01-.422.415h-1.992a.417.417 0 01-.434-.415z"/></g><path d="M95.612 5.863c.932 0 1.736.188 2.439.565.676.364 1.2.841 1.583 1.469.383.615.562 1.306.562 2.11 0 .803-.179 1.493-.562 2.108-.383.628-.907 1.105-1.583 1.47-.715.376-1.507.564-2.44.564-.931 0-1.736-.188-2.464-.565-.676-.364-1.2-.84-1.57-1.456-.383-.615-.562-1.306-.562-2.11 0-.803.179-1.493.562-2.109a4.055 4.055 0 011.57-1.456c.728-.402 1.533-.59 2.465-.59zm0-2.511c-1.354 0-2.58.289-3.665.866-1.085.578-1.94 1.369-2.553 2.373-.613 1.005-.92 2.147-.92 3.403 0 1.255.307 2.398.92 3.402a6.415 6.415 0 002.553 2.373c1.085.577 2.311.866 3.665.866 1.353 0 2.58-.289 3.664-.866 1.086-.578 1.941-1.369 2.554-2.373.626-1.004.932-2.147.932-3.402 0-1.256-.306-2.398-.932-3.403a6.589 6.589 0 00-2.554-2.373c-1.085-.577-2.298-.866-3.664-.866z" fill="#DC1B48"/><path d="M91.347.703c1.316.753 2.005 1.934 1.865 3.164-.115 1.03-.818 1.833-1.826 2.11-.051.012-.102 0-.128-.051-.843-1.243-1.2-2.511-1.009-3.59v-.013c.128-.678.473-1.256.97-1.607a.1.1 0 01.128-.013z" fill="#41A54B"/><path d="M92.42 5.147c-.817-2.875-4.073-1.883-4.993-1.607.55 1.921 2.592 3.566 4.993 1.607z" fill="#41A54B"/></symbol><symbol id="person" viewBox="0 0 12 12"><path d="M5.997 12c-.524-.03-1.049-.045-1.57-.097-.433-.044-.863-.12-1.29-.203-.31-.06-.618-.14-.918-.235-.593-.187-1.156-.432-1.625-.842-.248-.217-.44-.472-.534-.784a1.372 1.372 0 01-.035-.66C.11 8.72.273 8.29.52 7.893c.136-.217.29-.428.463-.619.194-.213.394-.425.646-.58.317-.195.623-.407.985-.53.277-.096.558-.175.848-.22.154-.024.31-.029.464-.05a.757.757 0 01.43.077c.127.058.259.108.39.156.133.048.266.1.404.13.129.03.264.034.397.05.128.014.256.032.384.041.056.004.112-.016.168-.015.27.005.53-.046.79-.106.142-.033.288-.058.425-.107.144-.051.279-.127.418-.191.025-.012.052-.025.079-.026.353-.022.701.014 1.042.101.164.042.321.106.48.162.123.043.25.08.366.136a4.09 4.09 0 011.628 1.359c.209.295.381.61.489.953.062.198.123.398.161.602.057.303.001.596-.144.87-.207.394-.544.666-.926.891a4.858 4.858 0 01-1.176.498c-.359.1-.72.193-1.085.267-.934.188-1.753.234-2.65.257zM8.84 2.723C8.846 4.258 7.563 5.285 6.4 5.42c-.945.11-1.756-.149-2.423-.787a2.575 2.575 0 01-.82-1.908C3.145 1.24 4.435-.008 6.017 0 7.56.008 8.852 1.233 8.84 2.723z"/></symbol><symbol id="phone" viewBox="0 0 12 12"><path d="M11.685 8.807l-1.678-1.675c-.6-.598-1.618-.359-1.858.419-.18.538-.779.837-1.318.718-1.199-.3-2.817-1.855-3.117-3.11-.18-.539.18-1.137.72-1.316.778-.24 1.018-1.256.419-1.854L3.175.314c-.48-.419-1.199-.419-1.619 0L.418 1.45c-1.14 1.197.12 4.366 2.936 7.177 2.817 2.811 5.994 4.127 7.193 2.931l1.138-1.136c.42-.479.42-1.197 0-1.615z"/></symbol><symbol id="quote" viewBox="0 0 29 21"><g fill="none" stroke="#AC1937" stroke-opacity=".46"><path d="M6.342 13.1l.083-.532-.536-.044C2.417 12.242.019 8.996.582 5.411A5.89 5.89 0 017.429.591c3.192.564 5.33 3.836 5.046 7.002h0l-.001.007c-.29 3.831-2.62 8.61-8.243 11.914l-.014.009-.004.002a.126.126 0 01-.036-.027.123.123 0 01-.032-.05l.003-.003.004-.007c.792-1.285 1.725-3.348 2.19-6.339zM21.803 13.099l.083-.532-.536-.043c-3.483-.283-5.858-3.535-5.16-6.94l.002-.008.002-.008A5.89 5.89 0 0123.042.745c3.192.564 5.329 3.835 5.045 7.002h0v.006c-.29 3.823-2.762 8.598-8.227 11.751a.295.295 0 01-.144.039c-.017-.002-.021-.006-.023-.008h0c-.003-.002-.048-.05-.032-.175.78-1.29 1.686-3.33 2.142-6.261z"/></g></symbol><symbol id="swiss-2" viewBox="0 0 120 35"><path d="M0 4.167A4.167 4.167 0 014.167 0H120v35H4.167A4.167 4.167 0 010 30.833V4.167z" fill="#fff"/><rect x="5" y="5" width="45" height="25" rx="1.667" fill="#E52D15"/><path fill-rule="evenodd" clip-rule="evenodd" d="M22.035 12.035h4.03V9.167h-6.899v6.9h2.869v-4.032zm4.03 5.466h6.854a6.23 6.23 0 01-1.61 3.483A6.231 6.231 0 0127.5 22.95a6.23 6.23 0 01-3.81-1.966 6.23 6.23 0 01-1.61-3.483h-2.882a9.125 9.125 0 008.302 8.333c4.668-.4 8.333-4.316 8.333-9.088v-2.113h-9.767V17.5zm1.394-8.334h8.374v2.868H27.46V9.167z" fill="#fff"/><path d="M58.334 10.445h1.513c.392 0 .744.083 1.044.25.3.166.535.403.705.694.17.306.248.64.248 1.028 0 .389-.092.736-.261 1.028-.17.305-.405.541-.705.708-.3.167-.652.25-1.044.25h-1.5v-3.958zm1.487 3.597c.326 0 .614-.07.848-.208a1.43 1.43 0 00.562-.57c.13-.236.195-.527.195-.833 0-.306-.065-.597-.196-.833a1.521 1.521 0 00-.56-.57 1.682 1.682 0 00-.849-.208h-1.096v3.222h1.096zM66.346 14.042v.361h-2.623v-3.958h2.544v.36h-2.153v1.418h1.918v.36h-1.918v1.473h2.232v-.014zM71.305 10.445l-1.644 3.958h-.392l-1.644-3.958h.43l1.423 3.43 1.435-3.43h.392zM75.468 14.042v.361h-2.623v-3.958h2.544v.36h-2.153v1.418h1.918v.36h-1.918v1.473h2.232v-.014zM77.399 10.445h.391v3.583h2.075v.361h-2.466v-3.944zM82.07 14.167c-.3-.18-.535-.417-.704-.722a2.09 2.09 0 01-.248-1.028c0-.375.078-.722.248-1.028.17-.305.404-.541.704-.722.3-.167.627-.25 1.005-.25.366 0 .705.083.992.264.3.167.522.417.692.722.17.306.26.653.26 1.028s-.09.722-.26 1.028a1.98 1.98 0 01-.692.722c-.3.167-.626.264-.992.264a2.028 2.028 0 01-1.005-.278zm1.788-.32c.235-.138.418-.333.561-.583.13-.25.196-.528.196-.833 0-.306-.065-.583-.196-.833a1.38 1.38 0 00-.56-.584 1.523 1.523 0 00-.797-.208c-.3 0-.561.07-.796.208-.235.14-.43.334-.561.584-.13.25-.209.527-.209.833 0 .305.065.583.209.833.13.25.326.445.561.584.235.138.509.208.796.208.3 0 .561-.07.796-.208zM89.404 10.806c.261.25.405.583.405 1 0 .417-.13.75-.405.986-.274.236-.64.361-1.11.361h-.99v1.25h-.392v-3.958h1.383c.47 0 .835.125 1.11.36zm-.287 1.722c.196-.167.287-.417.287-.722 0-.32-.091-.57-.287-.736-.196-.167-.47-.25-.848-.25h-.992v1.972h.992c.378 0 .652-.097.848-.264zM94.285 14.042v.361h-2.623v-3.958h2.544v.36h-2.153v1.418h1.919v.36h-1.919v1.473h2.232v-.014zM96.216 10.445h1.514c.391 0 .743.083 1.043.25.3.166.535.403.705.694.17.306.248.64.248 1.028 0 .389-.078.722-.248 1.028-.17.305-.404.528-.705.694-.3.167-.652.25-1.043.25h-1.514v-3.944zm1.487 3.597c.327 0 .614-.07.849-.208a1.43 1.43 0 00.56-.57c.131-.236.197-.527.197-.833 0-.306-.066-.597-.196-.833a1.52 1.52 0 00-.561-.57 1.682 1.682 0 00-.849-.208h-1.096v3.222h1.096zM106.89 12.695c.131.166.196.389.196.639 0 .333-.117.597-.352.777-.235.181-.587.278-1.044.278h-1.71v-3.944h1.605c.418 0 .731.083.966.264.222.18.339.43.339.75a.953.953 0 01-.156.555.973.973 0 01-.418.348c.248.055.444.166.574.333zm-2.505-1.903v1.43h1.187c.301 0 .535-.055.692-.18a.652.652 0 00.248-.528c0-.236-.078-.416-.248-.527-.157-.126-.391-.181-.692-.181h-1.187v-.014zm2.062 3.083c.169-.125.261-.305.261-.57 0-.485-.34-.735-1.005-.735h-1.305v1.486h1.305c.326 0 .574-.056.744-.18zM110.179 13.028v1.361h-.392v-1.36l-1.474-2.584h.417l1.266 2.222 1.279-2.222h.391l-1.487 2.583zM63.475 20.625h1.475v3.014a3.81 3.81 0 01-1.318.695 4.725 4.725 0 01-1.501.25c-.718 0-1.37-.167-1.958-.486-.587-.32-1.017-.806-1.344-1.39a3.962 3.962 0 01-.495-1.972c0-.736.17-1.389.495-1.972a3.419 3.419 0 011.37-1.36 4.048 4.048 0 011.971-.487c.613 0 1.161.111 1.657.333a3.37 3.37 0 011.253.959l-1.03.986c-.497-.556-1.097-.834-1.802-.834-.443 0-.835.098-1.187.292-.34.195-.614.472-.81.833-.195.361-.286.778-.286 1.25 0 .459.091.875.287 1.223.195.347.456.639.796.847.34.208.73.305 1.174.305.47 0 .888-.11 1.253-.319v-2.167zM71.84 23.07v1.375h-5.403v-7.417h5.26v1.375h-3.655v1.611h3.236v1.334h-3.236v1.722h3.798zM79.173 21.264c.222.32.34.695.34 1.153 0 .653-.235 1.153-.705 1.5s-1.162.528-2.075.528h-3.602v-7.417h3.406c.848 0 1.5.167 1.958.514.456.347.678.82.678 1.403 0 .36-.078.68-.248.958-.156.278-.391.5-.678.667.391.153.691.375.926.694zm-4.45-2.944v1.75h1.606c.391 0 .704-.07.9-.222.209-.153.313-.361.313-.653 0-.292-.104-.5-.313-.653-.209-.139-.509-.222-.9-.222h-1.606zm2.845 4.61c.222-.152.326-.374.326-.694 0-.61-.43-.916-1.278-.916h-1.88v1.833h1.867c.43 0 .743-.07.965-.222zM86.129 23.07v1.375h-5.39v-7.417H86v1.375H82.33v1.611h3.237v1.334H82.33v1.722h3.798zM91.844 24.445l-1.344-2.07h-1.487v2.07h-1.618v-7.417h3.014c.613 0 1.148.111 1.605.334.457.222.81.527 1.044.93.248.403.365.875.365 1.43 0 .556-.117 1.028-.378 1.431-.248.403-.6.709-1.057.917l1.566 2.389h-1.71v-.014zm-.404-5.68c-.248-.223-.626-.334-1.11-.334h-1.317v2.583h1.318c.483 0 .848-.11 1.109-.333.248-.222.378-.542.378-.958 0-.417-.13-.736-.378-.959zM94.729 17.028h1.618v7.417h-1.618v-7.417zM99.4 24.084a3.564 3.564 0 01-1.357-1.361 3.963 3.963 0 01-.496-1.973c0-.736.17-1.389.496-1.972a3.47 3.47 0 011.357-1.361 3.896 3.896 0 011.931-.486c.6 0 1.149.111 1.631.333.483.222.901.556 1.227.972l-1.031 1.014c-.47-.583-1.057-.86-1.749-.86-.43 0-.822.096-1.148.305-.34.208-.6.486-.796.847a2.398 2.398 0 00-.287 1.194c0 .459.091.875.287 1.223.196.347.457.639.796.847.339.208.718.305 1.148.305.692 0 1.279-.291 1.749-.875l1.031 1.014c-.326.43-.744.764-1.24.986a3.976 3.976 0 01-1.644.334 3.869 3.869 0 01-1.905-.486zM111.667 17.028v7.417h-1.618v-3.042h-3.158v3.042h-1.618v-7.417h1.618v2.917h3.158v-2.917h1.618z" fill="#232323"/></symbol><symbol id="swiss" viewBox="0 0 76 77"><path d="M0 0h76v72a5 5 0 01-5 5H5a5 5 0 01-5-5V0z" fill="#fff"/><rect x="6" y="6" width="64" height="43" rx="2" fill="#E52D15"/><path fill-rule="evenodd" clip-rule="evenodd" d="M30.13 19.63h5.805V15.5H26v9.935h4.13V19.63zm5.805 7.87h9.87a8.972 8.972 0 01-2.319 5.017 8.973 8.973 0 01-5.485 2.83 8.972 8.972 0 01-5.486-2.83 8.97 8.97 0 01-2.318-5.017h-4.152c.523 6.371 5.59 11.454 11.955 12 6.723-.577 12-6.215 12-13.087V23.37H35.935v4.13zm2.006-12H50v4.13H37.94V15.5z" fill="#fff"/><path d="M6 54.033h1.816c.47 0 .893.1 1.253.3.36.2.642.484.846.834.203.366.297.766.297 1.233 0 .467-.11.883-.313 1.233a2.14 2.14 0 01-.845.85c-.36.2-.783.3-1.253.3H6v-4.75zm1.785 4.317c.392 0 .736-.083 1.018-.25.298-.167.517-.4.673-.683a2.08 2.08 0 00.235-1 2.08 2.08 0 00-.235-1 1.824 1.824 0 00-.673-.684 2.019 2.019 0 00-1.018-.25H6.47v3.867h1.315zM15.615 58.35v.433h-3.148v-4.75h3.054v.434h-2.584v1.7h2.302v.433h-2.302v1.767h2.678v-.017zM21.566 54.033l-1.973 4.75h-.47l-1.973-4.75h.516l1.707 4.117 1.723-4.117h.47zM26.56 58.35v.433h-3.147v-4.75h3.054v.434h-2.584v1.7h2.302v.433h-2.302v1.767h2.678v-.017zM28.878 54.033h.47v4.3h2.49v.434h-2.96v-4.734zM34.484 58.5c-.36-.217-.642-.5-.845-.867a2.507 2.507 0 01-.298-1.233c0-.45.094-.867.298-1.233.203-.367.485-.65.845-.867.36-.2.752-.3 1.206-.3.439 0 .846.1 1.19.317.36.2.627.5.83.866.204.367.313.784.313 1.234 0 .45-.11.866-.313 1.233-.203.367-.485.65-.83.867-.36.2-.752.316-1.19.316-.454-.016-.846-.116-1.206-.333zm2.146-.383c.281-.167.5-.4.673-.7.157-.3.235-.634.235-1 0-.367-.078-.7-.235-1a1.657 1.657 0 00-.673-.7 1.828 1.828 0 00-.956-.25c-.36 0-.673.083-.955.25-.282.166-.517.4-.673.7-.157.3-.25.633-.25 1 0 .366.078.7.25 1 .156.3.391.533.673.7.282.166.61.25.955.25.36 0 .674-.084.956-.25zM43.285 54.467c.313.3.485.7.485 1.2s-.156.9-.485 1.183c-.33.283-.768.433-1.331.433h-1.19v1.5h-.47v-4.75h1.66c.563 0 1.002.15 1.33.434zm-.345 2.066c.235-.2.345-.5.345-.866 0-.384-.11-.684-.345-.884-.235-.2-.563-.3-1.018-.3h-1.19v2.367h1.19c.455 0 .783-.117 1.018-.317zM49.142 58.35v.433h-3.148v-4.75h3.054v.434h-2.584v1.7h2.302v.433h-2.302v1.767h2.678v-.017zM51.459 54.033h1.816c.47 0 .893.1 1.253.3.36.2.642.484.846.834.203.366.297.766.297 1.233 0 .467-.094.867-.297 1.233a2.098 2.098 0 01-.846.834c-.36.2-.783.3-1.253.3H51.46v-4.734zm1.785 4.317c.391 0 .736-.083 1.018-.25.297-.167.517-.4.673-.683a2.08 2.08 0 00.235-1 2.08 2.08 0 00-.235-1 1.824 1.824 0 00-.673-.684 2.018 2.018 0 00-1.018-.25h-1.316v3.867h1.316zM64.268 56.733c.157.2.235.467.235.767 0 .4-.14.717-.423.933-.281.217-.704.334-1.252.334h-2.052v-4.734h1.926c.502 0 .877.1 1.16.317.265.217.406.517.406.9 0 .267-.062.483-.188.667a1.163 1.163 0 01-.5.416c.297.067.532.2.688.4zm-3.006-2.283v1.717h1.425c.36 0 .642-.067.83-.217a.784.784 0 00.297-.633c0-.284-.094-.5-.297-.634-.188-.15-.47-.216-.83-.216h-1.425v-.017zm2.474 3.7c.204-.15.313-.367.313-.683 0-.584-.407-.884-1.206-.884h-1.566v1.784h1.566c.392 0 .69-.067.893-.217zM68.214 57.133v1.634h-.47v-1.634l-1.77-3.1h.502l1.519 2.667 1.535-2.667H70l-1.786 3.1zM12.17 66.25h1.77v3.617c-.455.366-.972.65-1.582.833-.595.2-1.206.3-1.801.3a4.84 4.84 0 01-2.349-.583c-.705-.384-1.221-.967-1.613-1.667-.391-.7-.595-1.483-.595-2.367 0-.883.204-1.666.595-2.366.392-.7.94-1.25 1.644-1.634a4.858 4.858 0 012.365-.583c.736 0 1.394.133 1.989.4.595.267 1.096.65 1.503 1.15l-1.237 1.183c-.595-.666-1.316-1-2.161-1-.533 0-1.002.117-1.425.35a2.513 2.513 0 00-.971 1c-.235.434-.345.934-.345 1.5 0 .55.11 1.05.345 1.467.235.417.548.767.955 1.017.407.25.877.366 1.41.366.563 0 1.064-.133 1.503-.383v-2.6zM22.207 69.183v1.65h-6.483v-8.9h6.311v1.65h-4.384v1.934h3.883v1.6h-3.883v2.066h4.556zM31.008 67.017c.266.383.407.833.407 1.383 0 .783-.282 1.383-.846 1.8-.563.417-1.393.633-2.49.633h-4.322v-8.9h4.087c1.018 0 1.801.2 2.35.617.547.417.814.983.814 1.683 0 .434-.094.817-.298 1.15-.188.334-.47.6-.814.8.47.184.83.45 1.112.834zm-5.34-3.534v2.1h1.926c.47 0 .846-.083 1.08-.266.251-.184.376-.434.376-.784 0-.35-.125-.6-.376-.783-.25-.167-.61-.267-1.08-.267h-1.926zm3.414 5.534c.266-.184.391-.45.391-.834 0-.733-.517-1.1-1.534-1.1h-2.256v2.2h2.24c.517 0 .892-.083 1.159-.266zM39.354 69.183v1.65h-6.467v-8.9h6.31v1.65h-4.4v1.934h3.884v1.6h-3.884v2.066h4.557zM46.213 70.833L44.6 68.35h-1.785v2.483h-1.942v-8.9h3.618c.736 0 1.378.134 1.926.4.548.267.97.634 1.252 1.117.298.483.439 1.05.439 1.717 0 .666-.141 1.233-.454 1.716-.298.484-.72.85-1.269 1.1l1.88 2.867h-2.052v-.017zm-.485-6.816c-.298-.267-.752-.4-1.331-.4h-1.582v3.1h1.582c.58 0 1.018-.134 1.33-.4.298-.267.455-.65.455-1.15 0-.5-.157-.884-.454-1.15zM49.674 61.933h1.942v8.9h-1.942v-8.9zM55.28 70.4a4.277 4.277 0 01-1.629-1.633c-.391-.7-.595-1.484-.595-2.367s.204-1.667.595-2.367.94-1.25 1.629-1.633a4.677 4.677 0 012.317-.583c.72 0 1.378.133 1.958.4a3.98 3.98 0 011.472 1.166L59.789 64.6c-.563-.7-1.268-1.033-2.098-1.033-.517 0-.986.116-1.378.366-.407.25-.72.584-.955 1.017-.235.433-.345.883-.345 1.433s.11 1.05.345 1.467c.235.417.548.767.955 1.017.407.25.861.366 1.378.366.83 0 1.535-.35 2.098-1.05l1.238 1.217a3.797 3.797 0 01-1.488 1.183c-.595.267-1.253.4-1.973.4-.83 0-1.597-.2-2.286-.583zM70 61.933v8.9h-1.942v-3.65h-3.79v3.65h-1.941v-8.9h1.942v3.5h3.79v-3.5H70z" fill="#232323"/></symbol></svg>