<svg width="48" height="49" viewBox="0 0 48 49" fill="none" xmlns="http://www.w3.org/2000/svg">
<g clip-path="url(#clip0)">
<path d="M38.2118 32.0307C44.0571 29.4886 48.0779 23.3736 47.9983 16.9692C47.9984 16.1926 47.3674 15.563 46.5908 15.563C43.4853 15.563 40.4033 16.4637 37.7811 18.1191C36.4635 16.8283 34.7494 15.9409 32.8405 15.6593C31.7371 7.93994 21.6713 5.3107 16.9454 11.4892C14.7515 5.04606 8.25174 0.400016 1.40758 0.501635C0.631008 0.501541 0.00142333 1.13263 0.00142333 1.9092C-0.0788215 8.3107 3.94392 14.4286 9.78801 16.9693C3.9428 19.5115 -0.0780716 25.6265 0.00151708 32.0308C0.00142333 32.8074 0.632508 33.437 1.40908 33.437C4.51454 33.437 7.59656 32.5363 10.2188 30.8809C11.5363 32.1717 13.2504 33.0591 15.1594 33.3407C16.2627 41.0601 26.3286 43.6893 31.0545 37.5108C33.2484 43.9541 39.7481 48.6001 46.5923 48.4984C47.3689 48.4985 47.9984 47.8674 47.9984 47.0908C48.0786 40.6893 44.0558 34.5714 38.2118 32.0307ZM45.1065 18.4578C44.7296 22.1242 42.7859 25.5608 39.8293 27.8175C40.7874 25.4966 40.6572 22.6099 39.4651 20.3833C41.1768 19.3398 43.1141 18.679 45.1065 18.4578ZM2.89333 30.5423C3.27028 26.876 5.21406 23.4393 8.17056 21.1826C7.21249 23.5035 7.3427 26.3903 8.53475 28.6168C6.82308 29.6603 4.88577 30.3211 2.89333 30.5423ZM24 10.8447C27.377 10.8447 30.1246 13.5921 30.1246 16.9693C29.8166 25.0833 18.1821 25.081 17.8754 16.9692C17.8754 13.5921 20.6228 10.8447 24 10.8447ZM6.81286 11.5643C4.58729 9.33813 3.22462 6.4796 2.89314 3.39308C9.08437 3.94963 14.4273 9.29248 14.9839 15.4839C11.898 15.1525 9.039 13.7899 6.81286 11.5643ZM16.4692 30.6247C9.1094 30.4392 8.10493 20.1749 15.1957 18.5085C15.8402 22.2051 18.7641 25.129 22.4607 25.7735C21.8729 28.5415 19.4098 30.6247 16.4692 30.6247ZM24 38.1554C21.0594 38.1554 18.5962 36.0723 18.0086 33.3044C20.5196 32.8666 22.6743 31.3768 24 29.3077C25.3256 31.3768 27.4803 32.8665 29.9913 33.3044C29.4037 36.0723 26.9405 38.1554 24 38.1554ZM25.5392 25.7736C29.2358 25.1291 32.1596 22.2052 32.8041 18.5086C35.5721 19.0963 37.6553 21.5595 37.6553 24.5001C37.4707 31.8583 27.206 32.8654 25.5392 25.7736ZM36.936 41.6874C34.7103 39.4612 33.3477 36.6026 33.0162 33.5162C39.2074 34.0728 44.5503 39.4154 45.1069 45.607C42.021 45.2757 39.162 43.913 36.936 41.6874Z" fill="white"/>
</g>
<defs>
<clipPath id="clip0">
<rect width="48" height="48" fill="white" transform="translate(0 0.5)"/>
</clipPath>
</defs>
</svg>
