<svg width="48" height="48" viewBox="0 0 48 48" fill="none" xmlns="http://www.w3.org/2000/svg">
<g clip-path="url(#clip0)">
<path d="M42.0241 15.5399L29.2602 2.77603C27.4701 0.985875 25.0816 0 22.5346 0C19.9876 0 17.5991 0.985875 15.809 2.77603C13.5893 4.99566 12.6988 8.04844 13.1362 10.9371C12.993 10.9306 12.8496 10.9263 12.7057 10.9263C7.46118 10.9263 3.19434 15.1931 3.19434 20.4378V38.4886C3.19434 43.7332 7.46109 48 12.7057 48C17.9504 48 22.2171 43.7332 22.2171 38.4886V22.6354L28.5729 28.9912C30.4273 30.8456 32.8626 31.7725 35.2985 31.7725C37.7339 31.7725 40.1701 30.8452 42.0241 28.9912C45.7326 25.2826 45.7326 19.2484 42.0241 15.5399ZM17.7978 4.76475C19.0567 3.50588 20.739 2.8125 22.5346 2.8125C24.3302 2.8125 26.0125 3.50588 27.2714 4.76475L32.659 10.1524L23.1853 19.6262L21.8352 18.2761C21.7481 18.157 21.644 18.0524 21.5257 17.9666L17.7977 14.2386C17.1938 13.6347 16.7218 12.9328 16.3924 12.1685C16.3865 12.1537 16.3796 12.1396 16.3732 12.1251C16.0279 11.3077 15.8455 10.4198 15.8455 9.50166C15.8455 7.70597 16.5388 6.02372 17.7978 4.76475ZM12.7057 45.1875C9.01199 45.1875 6.00684 42.1823 6.00684 38.4886V30.8694H19.4046V38.4886C19.4046 42.1823 16.3995 45.1875 12.7057 45.1875ZM19.4046 20.4378V28.0569H6.00684V20.4378C6.00684 16.7439 9.01199 13.7388 12.7057 13.7388C13.1743 13.7388 13.6386 13.7887 14.0931 13.8855C14.5306 14.7291 15.1022 15.5205 15.809 16.2273L19.372 19.7903C19.3928 20.0051 19.4046 20.2215 19.4046 20.4378ZM40.0354 27.0023C37.4234 29.6142 33.1736 29.6141 30.5616 27.0023L25.174 21.6148L34.6478 12.141L40.0354 17.5285C42.6473 20.1405 42.6473 24.3905 40.0354 27.0023Z" fill="white"/>
</g>
<defs>
<clipPath id="clip0">
<rect width="48" height="48" fill="white"/>
</clipPath>
</defs>
</svg>
