<svg width="40" height="40" viewBox="0 0 40 40" fill="none" xmlns="http://www.w3.org/2000/svg">
<g clip-path="url(#clip0)">
<path d="M17.4999 40.0001C17.0399 40.0001 16.6666 39.6267 16.6666 39.1667V37.5367C16.6666 34.6434 15.2832 31.8817 12.9666 30.1501C12.5982 29.8734 12.5232 29.3517 12.7982 28.9834C13.0766 28.6151 13.5982 28.5401 13.9649 28.8151C16.6999 30.8601 18.3316 34.1201 18.3316 37.5351V39.1667C18.3332 39.6267 17.9599 40.0001 17.4999 40.0001Z" fill="#971225"/>
<path d="M22.5001 40.0001C22.0401 40.0001 21.6667 39.6268 21.6667 39.1668V37.5368C21.6667 34.1218 23.2984 30.8618 26.0334 28.8168C26.4017 28.5401 26.9217 28.6151 27.2001 28.9851C27.4751 29.3534 27.4001 29.8751 27.0317 30.1518C24.7167 31.8818 23.3334 34.6434 23.3334 37.5368V39.1668C23.3334 39.6268 22.9601 40.0001 22.5001 40.0001Z" fill="#971225"/>
<path d="M20 31.6667C10.81 31.6667 3.33334 24.4517 3.33334 15.5834C3.33334 14.975 3.40501 14.39 3.54501 13.825C3.79334 12.815 3.52501 11.8484 2.84168 11.3067C1.38168 10.145 0.44001 8.95337 0.0416771 7.76337C-0.103323 7.3267 0.133344 6.85504 0.57001 6.70837C1.00834 6.5667 1.47834 6.80004 1.62501 7.2367C1.91334 8.10337 2.69334 9.05837 3.88001 10.0017C5.08001 10.955 5.57167 12.5734 5.16501 14.225C5.05501 14.66 5.00001 15.1117 5.00001 15.5667C5.00001 23.5334 11.7283 30.0001 20 30.0001C24.0217 30.0001 27.7933 28.4967 30.62 25.7667C33.445 23.0434 35 19.4267 35 15.5834C35 15.1234 34.945 14.665 34.835 14.2234C34.4283 12.5734 34.92 10.9567 36.12 10.0034C37.3067 9.06004 38.0867 8.10337 38.375 7.2367C38.5233 6.80004 38.995 6.56837 39.43 6.71004C39.8667 6.85504 40.1017 7.32837 39.9567 7.76504C39.56 8.95337 38.6183 10.1467 37.1567 11.3084C36.4733 11.8517 36.2033 12.815 36.4517 13.825C36.595 14.3967 36.6667 14.9884 36.6667 15.5834C36.6667 19.8834 34.93 23.9251 31.7767 26.9667C28.6383 29.9984 24.455 31.6667 20 31.6667Z" fill="#971225"/>
<path d="M29.8084 9.59354C29.4484 9.59354 29.0851 9.54854 28.7284 9.45687C22.9284 7.97187 17.0534 7.96687 11.2651 9.44354C9.91841 9.78854 8.50508 9.4702 7.47008 8.59854C3.77341 5.4752 1.93008 3.04021 1.67341 0.935205C1.61674 0.478539 1.94174 0.0618721 2.39841 0.00687211C2.84841 -0.0614612 3.26841 0.275205 3.32674 0.733539C3.52508 2.35021 5.28174 4.56854 8.54674 7.32687C9.17008 7.8502 10.0317 8.0402 10.8534 7.8302C16.9151 6.2852 23.0668 6.28854 29.1418 7.84354C29.9618 8.05354 30.8318 7.8652 31.4551 7.33687C34.7184 4.5702 36.4751 2.34854 36.6751 0.731872C36.7301 0.275205 37.1551 -0.0564612 37.6051 0.00687211C38.0618 0.0635388 38.3868 0.480205 38.3301 0.936872C38.0701 3.0402 36.2284 5.47854 32.5334 8.60854C31.7718 9.25187 30.8018 9.59354 29.8084 9.59354Z" fill="#971225"/>
<path d="M35.4167 18.3332H31.5867C29.3017 18.3332 27.0583 17.5466 25.2717 16.1182C22.17 13.6349 17.83 13.6349 14.7283 16.1182C12.9417 17.5466 10.6983 18.3332 8.41333 18.3332H4.58333C4.12333 18.3332 3.75 17.9599 3.75 17.4999C3.75 17.0399 4.12333 16.6666 4.58333 16.6666H8.41333C10.3233 16.6666 12.195 16.0099 13.6867 14.8166C17.405 11.8416 22.5983 11.8432 26.3133 14.8166C27.8067 16.0099 29.6783 16.6666 31.5867 16.6666H35.4167C35.8767 16.6666 36.25 17.0399 36.25 17.4999C36.25 17.9599 35.8767 18.3332 35.4167 18.3332Z" fill="#971225"/>
</g>
<defs>
<clipPath id="clip0">
<rect width="40" height="40" fill="white"/>
</clipPath>
</defs>
</svg>
