<svg width="29" height="28" fill="none" xmlns="http://www.w3.org/2000/svg"><path d="M26.509 3.725a8.522 8.522 0 00-11.999-.04A8.513 8.513 0 102.514 15.766L14.49 27.788l.023-.026.022.023L26.51 15.766a8.522 8.522 0 000-12.04zM21.386 14.99a1.775 1.775 0 01-1.76 1.76h-2.011v2.01a1.775 1.775 0 01-1.76 1.76h-2.687a1.775 1.775 0 01-1.772-1.755v-1.993H9.385a1.775 1.775 0 01-1.76-1.76V12.3a1.775 1.775 0 011.76-1.76h2.01V8.53a1.775 1.775 0 011.76-1.76h2.7a1.775 1.775 0 011.76 1.76v2.011h2.01a1.775 1.775 0 011.76 1.76v2.69z" fill="#95B846"/></svg>