<svg width="40" height="40" viewBox="0 0 40 40" fill="none" xmlns="http://www.w3.org/2000/svg">
<path d="M20 0C8.96386 0 0 8.96386 0 20C0 31.0361 8.96386 40 20 40C31.0361 40 40 31.0361 40 20C40 8.96386 31.0361 0 20 0ZM20 38.2651C9.92771 38.2651 1.73494 30.0723 1.73494 20C1.73494 9.92771 9.92771 1.73494 20 1.73494C30.0723 1.73494 38.2651 9.92771 38.2651 20C38.2651 30.0723 30.0723 38.2651 20 38.2651Z" fill="#971225"/>
<path d="M30.4096 15.6629H24.3374V9.59061C24.3374 9.10869 23.9518 8.72314 23.4699 8.72314H16.5301C16.0482 8.72314 15.6627 9.10869 15.6627 9.59061V15.6629H9.59037C9.10844 15.6629 8.7229 16.0484 8.7229 16.5304V23.4701C8.7229 23.9521 9.10844 24.3376 9.59037 24.3376H15.6627V30.4099C15.6627 30.8918 16.0482 31.2774 16.5301 31.2774H23.4699C23.9518 31.2774 24.3374 30.8918 24.3374 30.4099V24.3376H30.4096C30.8916 24.3376 31.2771 23.9521 31.2771 23.4701V16.5304C31.2289 16.0484 30.8434 15.6629 30.4096 15.6629ZM29.5904 22.6027H29.5422H23.4699C22.988 22.6027 22.6024 22.9882 22.6024 23.4701V29.5424H17.3976V23.4701C17.3976 22.9882 17.0121 22.6027 16.5301 22.6027H10.4578V17.3978H16.5301C17.0121 17.3978 17.3976 17.0123 17.3976 16.5304V10.4581H22.6506V16.5304C22.6506 17.0123 23.0362 17.3978 23.5181 17.3978H29.5904V22.6027Z" fill="#971225"/>
</svg>
